<?xml version="1.0" standalone="yes"?>

<svg version="1.1" viewBox="0.0 0.0 960.0 720.0" fill="none" stroke="none" stroke-linecap="square" stroke-miterlimit="10" xmlns="http://www.w3.org/2000/svg" xmlns:xlink="http://www.w3.org/1999/xlink"><clipPath id="p.0"><path d="m0 0l960.0 0l0 720.0l-960.0 0l0 -720.0z" clip-rule="nonzero"></path></clipPath><g clip-path="url(#p.0)"><path fill="#000000" fill-opacity="0.0" d="m0 0l960.0 0l0 720.0l-960.0 0z" fill-rule="nonzero"></path><path fill="#fff2cc" d="m35.48294 24.262466l532.9763 0l0 449.57483l-532.9763 0z" fill-rule="nonzero"></path><path stroke="#434343" stroke-width="1.0" stroke-linejoin="round" stroke-linecap="butt" d="m35.48294 24.262466l532.9763 0l0 449.57483l-532.9763 0z" fill-rule="nonzero"></path><path fill="#000000" fill-opacity="0.0" d="m33.397453 20.829397l107.1811 0l0 26.614172l-107.1811 0z" fill-rule="nonzero"></path><path fill="#666666" d="m48.428703 40.069397q-0.171875 -0.5 -0.34375 -0.96875q-0.171875 -0.484375 -0.34375 -0.984375l-3.453125 0l-0.6875 1.953125l-1.109375 0q0.4375 -1.203125 0.8125 -2.234375q0.390625 -1.03125 0.75 -1.953125q0.375 -0.921875 0.734375 -1.765625q0.375 -0.84375 0.765625 -1.671875l0.984375 0q0.390625 0.828125 0.75 1.671875q0.375 0.84375 0.734375 1.765625q0.375 0.921875 0.75 1.953125q0.390625 1.03125 0.828125 2.234375l-1.171875 0zm-1.0 -2.828125q-0.34375 -0.953125 -0.6875 -1.84375q-0.34375 -0.90625 -0.71875 -1.734375q-0.390625 0.828125 -0.734375 1.734375q-0.34375 0.890625 -0.6875 1.84375l2.828125 0zm7.1432953 -2.34375q-0.453125 1.46875 -0.9375 2.734375q-0.46875 1.25 -0.9375 2.4375l-1.0625 0q-0.59375 -1.6875 -1.046875 -3.546875q-0.4375 -1.875 -0.8125 -4.078125l1.125 0q0.140625 0.859375 0.296875 1.71875q0.171875 0.859375 0.34375 1.671875q0.1875 0.796875 0.359375 1.546875q0.1875 0.734375 0.375 1.359375q0.4375 -1.15625 0.921875 -2.53125q0.5 -1.390625 0.921875 -2.859375l0.9375 0q0.421875 1.46875 0.921875 2.859375q0.515625 1.375 0.953125 2.53125q0.171875 -0.625 0.34375 -1.359375q0.1875 -0.734375 0.359375 -1.53125q0.171875 -0.8125 0.328125 -1.671875q0.171875 -0.875 0.328125 -1.734375l1.078125 0q-0.390625 2.203125 -0.84375 4.078125q-0.4375 1.859375 -1.015625 3.546875l-1.0625 0q-0.484375 -1.1875 -0.953125 -2.4375q-0.453125 -1.265625 -0.921875 -2.734375zm7.5091248 4.40625q1.671875 0 1.671875 -1.140625q0 -0.34375 -0.15625 -0.59375q-0.140625 -0.25 -0.390625 -0.421875q-0.25 -0.1875 -0.578125 -0.3125q-0.328125 -0.140625 -0.6875 -0.28125q-0.421875 -0.140625 -0.796875 -0.3125q-0.375 -0.1875 -0.65625 -0.4375q-0.265625 -0.25 -0.4375 -0.578125q-0.15625 -0.34375 -0.15625 -0.828125q0 -1.0 0.6875 -1.5625q0.6875 -0.5625 1.890625 -0.5625q0.6875 0 1.25 0.15625q0.5625 0.140625 0.828125 0.3125l-0.34375 0.875q-0.21875 -0.140625 -0.6875 -0.28125q-0.453125 -0.140625 -1.046875 -0.140625q-0.3125 0 -0.578125 0.0625q-0.265625 0.0625 -0.46875 0.203125q-0.1875 0.125 -0.3125 0.328125q-0.109375 0.203125 -0.109375 0.484375q0 0.3125 0.109375 0.515625q0.125 0.203125 0.34375 0.375q0.234375 0.15625 0.515625 0.296875q0.296875 0.125 0.640625 0.25q0.5 0.203125 0.90625 0.40625q0.421875 0.1875 0.71875 0.46875q0.3125 0.265625 0.46875 0.65625q0.171875 0.375 0.171875 0.921875q0 1.0 -0.734375 1.546875q-0.734375 0.53125 -2.0625 0.53125q-0.453125 0 -0.84375 -0.0625q-0.375 -0.0625 -0.671875 -0.140625q-0.296875 -0.09375 -0.515625 -0.1875q-0.203125 -0.09375 -0.328125 -0.15625l0.328125 -0.875q0.25 0.140625 0.765625 0.3125q0.515625 0.171875 1.265625 0.171875zm11.443314 0.765625q-0.171875 -0.5 -0.34375 -0.96875q-0.171875 -0.484375 -0.34375 -0.984375l-3.453125 0l-0.6875 1.953125l-1.109375 0q0.4375 -1.203125 0.8125 -2.234375q0.390625 -1.03125 0.75 -1.953125q0.375 -0.921875 0.734375 -1.765625q0.375 -0.84375 0.765625 -1.671875l0.984375 0q0.390625 0.828125 0.75 1.671875q0.375 0.84375 0.734375 1.765625q0.375 0.921875 0.75 1.953125q0.390625 1.03125 0.828125 2.234375l-1.171875 0zm-1.0 -2.828125q-0.34375 -0.953125 -0.6875 -1.84375q-0.34375 -0.90625 -0.71875 -1.734375q-0.390625 0.828125 -0.734375 1.734375q-0.34375 0.890625 -0.6875 1.84375l2.828125 0zm5.3932953 2.953125q-0.6875 0 -1.21875 -0.21875q-0.515625 -0.21875 -0.875 -0.609375q-0.359375 -0.390625 -0.53125 -0.9375q-0.171875 -0.546875 -0.171875 -1.203125q0 -0.671875 0.1875 -1.21875q0.203125 -0.546875 0.546875 -0.9375q0.359375 -0.40625 0.859375 -0.625q0.515625 -0.234375 1.140625 -0.234375q0.390625 0 0.765625 0.0625q0.390625 0.0625 0.75 0.203125l-0.234375 0.875q-0.234375 -0.109375 -0.546875 -0.171875q-0.296875 -0.078125 -0.625 -0.078125q-0.859375 0 -1.328125 0.546875q-0.453125 0.53125 -0.453125 1.578125q0 0.453125 0.109375 0.84375q0.109375 0.390625 0.328125 0.671875q0.21875 0.265625 0.5625 0.421875q0.359375 0.140625 0.875 0.140625q0.40625 0 0.734375 -0.078125q0.328125 -0.078125 0.515625 -0.171875l0.140625 0.859375q-0.078125 0.0625 -0.25 0.109375q-0.15625 0.046875 -0.375 0.078125q-0.203125 0.046875 -0.4375 0.0625q-0.234375 0.03125 -0.46875 0.03125zm4.9552 0q-0.6875 0 -1.21875 -0.21875q-0.515625 -0.21875 -0.875 -0.609375q-0.359375 -0.390625 -0.53125 -0.9375q-0.171875 -0.546875 -0.171875 -1.203125q0 -0.671875 0.1875 -1.21875q0.203125 -0.546875 0.546875 -0.9375q0.359375 -0.40625 0.859375 -0.625q0.515625 -0.234375 1.140625 -0.234375q0.390625 0 0.765625 0.0625q0.390625 0.0625 0.75 0.203125l-0.234375 0.875q-0.234375 -0.109375 -0.546875 -0.171875q-0.296875 -0.078125 -0.625 -0.078125q-0.859375 0 -1.328125 0.546875q-0.453125 0.53125 -0.453125 1.578125q0 0.453125 0.109375 0.84375q0.109375 0.390625 0.328125 0.671875q0.21875 0.265625 0.5625 0.421875q0.359375 0.140625 0.875 0.140625q0.40625 0 0.734375 -0.078125q0.328125 -0.078125 0.515625 -0.171875l0.140625 0.859375q-0.078125 0.0625 -0.25 0.109375q-0.15625 0.046875 -0.375 0.078125q-0.203125 0.046875 -0.4375 0.0625q-0.234375 0.03125 -0.46875 0.03125zm7.5177 -2.984375q0 0.6875 -0.203125 1.234375q-0.1875 0.546875 -0.546875 0.953125q-0.359375 0.390625 -0.859375 0.609375q-0.484375 0.203125 -1.0625 0.203125q-0.59375 0 -1.09375 -0.203125q-0.484375 -0.21875 -0.84375 -0.609375q-0.359375 -0.40625 -0.5625 -0.953125q-0.1875 -0.546875 -0.1875 -1.234375q0 -0.671875 0.1875 -1.21875q0.203125 -0.5625 0.5625 -0.953125q0.359375 -0.40625 0.84375 -0.609375q0.5 -0.21875 1.09375 -0.21875q0.578125 0 1.0625 0.21875q0.5 0.203125 0.859375 0.609375q0.359375 0.390625 0.546875 0.953125q0.203125 0.546875 0.203125 1.21875zm-1.0625 0q0 -0.96875 -0.4375 -1.53125q-0.421875 -0.578125 -1.171875 -0.578125q-0.75 0 -1.1875 0.578125q-0.4375 0.5625 -0.4375 1.53125q0 0.96875 0.4375 1.53125q0.4375 0.5625 1.1875 0.5625q0.75 0 1.171875 -0.5625q0.4375 -0.5625 0.4375 -1.53125zm6.8653717 2.6875q-0.359375 0.09375 -0.9375 0.1875q-0.578125 0.109375 -1.328125 0.109375q-0.65625 0 -1.109375 -0.1875q-0.453125 -0.203125 -0.734375 -0.546875q-0.265625 -0.359375 -0.390625 -0.828125q-0.125 -0.484375 -0.125 -1.078125l0 -3.203125l1.03125 0l0 2.984375q0 1.046875 0.328125 1.5q0.328125 0.453125 1.109375 0.453125q0.15625 0 0.328125 0q0.1875 -0.015625 0.34375 -0.03125q0.15625 -0.03125 0.28125 -0.046875q0.125 -0.015625 0.171875 -0.03125l0 -4.828125l1.03125 0l0 5.546875zm1.554245 -5.390625q0.359375 -0.078125 0.9375 -0.171875q0.578125 -0.109375 1.34375 -0.109375q0.6875 0 1.125 0.203125q0.453125 0.1875 0.71875 0.53125q0.28125 0.34375 0.390625 0.828125q0.109375 0.484375 0.109375 1.0625l0 3.21875l-1.015625 0l0 -2.984375q0 -0.53125 -0.078125 -0.90625q-0.078125 -0.375 -0.25 -0.609375q-0.15625 -0.234375 -0.4375 -0.328125q-0.265625 -0.109375 -0.671875 -0.109375q-0.171875 0 -0.34375 0.015625q-0.171875 0 -0.328125 0.015625q-0.15625 0.015625 -0.296875 0.046875q-0.125 0.015625 -0.171875 0.03125l0 4.828125l-1.03125 0l0 -5.5625zm7.085495 -0.15625l2.15625 0l0 0.859375l-2.15625 0l0 2.640625q0 0.421875 0.0625 0.703125q0.0625 0.28125 0.1875 0.453125q0.140625 0.15625 0.328125 0.21875q0.203125 0.0625 0.46875 0.0625q0.46875 0 0.75 -0.09375q0.28125 -0.109375 0.390625 -0.15625l0.1875 0.84375q-0.15625 0.078125 -0.546875 0.1875q-0.375 0.125 -0.859375 0.125q-0.59375 0 -0.96875 -0.140625q-0.375 -0.15625 -0.609375 -0.453125q-0.234375 -0.296875 -0.328125 -0.734375q-0.09375 -0.4375 -0.09375 -1.015625l0 -5.09375l1.03125 -0.171875l0 1.765625z" fill-rule="nonzero"></path><path fill="#f9cb9c" d="m74.53018 60.6168l393.3858 0l0 313.41733l-393.3858 0z" fill-rule="nonzero"></path><path stroke="#434343" stroke-width="1.0" stroke-linejoin="round" stroke-linecap="butt" d="m74.53018 60.6168l393.3858 0l0 313.41733l-393.3858 0z" fill-rule="nonzero"></path><path fill="#000000" fill-opacity="0.0" d="m73.264755 57.133858l144.81891 0l0 26.614174l-144.81891 0z" fill-rule="nonzero"></path><path fill="#666666" d="m89.37413 68.748856q-0.421875 1.21875 -0.8125 2.25q-0.375 1.015625 -0.734375 1.9375q-0.359375 0.921875 -0.71875 1.765625q-0.359375 0.84375 -0.734375 1.671875l-1.0 0q-0.375 -0.828125 -0.734375 -1.671875q-0.34375 -0.84375 -0.71875 -1.765625q-0.375 -0.921875 -0.765625 -1.9375q-0.375 -1.03125 -0.78125 -2.25l1.171875 0q0.59375 1.734375 1.171875 3.34375q0.578125 1.609375 1.171875 3.015625q0.609375 -1.390625 1.171875 -3.0q0.578125 -1.625 1.171875 -3.359375l1.140625 0zm1.7874451 7.625l-1.03125 0l0 -5.71875l1.03125 0l0 5.71875zm-0.515625 -6.75q-0.28125 0 -0.484375 -0.171875q-0.1875 -0.1875 -0.1875 -0.5q0 -0.3125 0.1875 -0.484375q0.203125 -0.1875 0.484375 -0.1875q0.265625 0 0.453125 0.1875q0.203125 0.171875 0.203125 0.484375q0 0.3125 -0.203125 0.5q-0.1875 0.171875 -0.453125 0.171875zm4.28981 0.90625q0.140625 0 0.3125 0.015625q0.171875 0.015625 0.328125 0.046875q0.171875 0.03125 0.296875 0.0625q0.140625 0.015625 0.21875 0.046875l-0.1875 0.890625q-0.109375 -0.046875 -0.390625 -0.109375q-0.28125 -0.0625 -0.71875 -0.0625q-0.296875 0 -0.578125 0.0625q-0.28125 0.0625 -0.359375 0.078125l0 4.8125l-1.03125 0l0 -5.484375q0.375 -0.125 0.90625 -0.234375q0.546875 -0.125 1.203125 -0.125zm2.9727325 0.125l2.15625 0l0 0.859375l-2.15625 0l0 2.640625q0 0.421875 0.0625 0.703125q0.0625 0.28125 0.1875 0.453125q0.140625 0.15625 0.328125 0.21875q0.203125 0.0625 0.46875 0.0625q0.46875 0 0.75 -0.09375q0.28125 -0.109375 0.390625 -0.15625l0.1875 0.84375q-0.15625 0.078125 -0.546875 0.1875q-0.375 0.125 -0.859375 0.125q-0.59375 0 -0.96875 -0.140625q-0.375 -0.15625 -0.609375 -0.453125q-0.234375 -0.296875 -0.328125 -0.734375q-0.09375 -0.4375 -0.09375 -1.015625l0 -5.09375l1.03125 -0.171875l0 1.765625zm7.8776093 5.546875q-0.359375 0.09375 -0.9375 0.1875q-0.578125 0.109375 -1.328125 0.109375q-0.65625 0 -1.109375 -0.1875q-0.453125 -0.203125 -0.734375 -0.546875q-0.265625 -0.359375 -0.390625 -0.828125q-0.125 -0.484375 -0.125 -1.078125l0 -3.203125l1.03125 0l0 2.984375q0 1.046875 0.328125 1.5q0.328125 0.453125 1.109375 0.453125q0.15625 0 0.328125 0q0.1875 -0.015625 0.34375 -0.03125q0.15625 -0.03125 0.28125 -0.046875q0.125 -0.015625 0.171875 -0.03125l0 -4.828125l1.03125 0l0 5.546875zm3.491745 -0.5625q0.359375 0 0.640625 -0.015625q0.28125 -0.015625 0.46875 -0.0625l0 -1.703125q-0.109375 -0.0625 -0.359375 -0.09375q-0.234375 -0.046875 -0.59375 -0.046875q-0.234375 0 -0.5 0.046875q-0.25 0.03125 -0.46875 0.140625q-0.203125 0.09375 -0.359375 0.28125q-0.140625 0.171875 -0.140625 0.46875q0 0.546875 0.359375 0.765625q0.359375 0.21875 0.953125 0.21875zm-0.078125 -5.125q0.609375 0 1.03125 0.15625q0.421875 0.15625 0.671875 0.453125q0.265625 0.28125 0.375 0.6875q0.109375 0.40625 0.109375 0.890625l0 3.578125q-0.125 0.015625 -0.359375 0.0625q-0.234375 0.03125 -0.53125 0.0625q-0.296875 0.03125 -0.65625 0.0625q-0.34375 0.03125 -0.6875 0.03125q-0.46875 0 -0.890625 -0.109375q-0.40625 -0.09375 -0.703125 -0.296875q-0.296875 -0.21875 -0.46875 -0.5625q-0.15625 -0.359375 -0.15625 -0.859375q0 -0.46875 0.1875 -0.8125q0.203125 -0.34375 0.53125 -0.546875q0.328125 -0.21875 0.765625 -0.3125q0.4375 -0.09375 0.921875 -0.09375q0.15625 0 0.3125 0.015625q0.171875 0.015625 0.3125 0.046875q0.15625 0.015625 0.265625 0.046875q0.125 0.015625 0.15625 0.03125l0 -0.296875q0 -0.25 -0.0625 -0.484375q-0.046875 -0.25 -0.1875 -0.4375q-0.140625 -0.203125 -0.390625 -0.3125q-0.25 -0.125 -0.640625 -0.125q-0.5 0 -0.890625 0.078125q-0.375 0.0625 -0.5625 0.140625l-0.125 -0.84375q0.203125 -0.09375 0.65625 -0.171875q0.46875 -0.078125 1.015625 -0.078125zm5.421997 5.96875q-0.9375 -0.015625 -1.34375 -0.40625q-0.390625 -0.390625 -0.390625 -1.203125l0 -6.859375l1.015625 -0.171875l0 6.875q0 0.25 0.046875 0.421875q0.046875 0.15625 0.140625 0.265625q0.109375 0.09375 0.265625 0.140625q0.171875 0.046875 0.40625 0.078125l-0.140625 0.859375zm5.745804 -7.8125q1.609375 0 2.46875 0.609375q0.859375 0.609375 0.859375 1.828125q0 0.65625 -0.234375 1.125q-0.234375 0.46875 -0.6875 0.765625q-0.4375 0.28125 -1.078125 0.421875q-0.640625 0.125 -1.4375 0.125l-0.84375 0l0 2.828125l-1.0625 0l0 -7.515625q0.4375 -0.109375 1.0 -0.140625q0.5625 -0.046875 1.015625 -0.046875zm0.09375 0.9375q-0.6875 0 -1.046875 0.03125l0 3.0l0.796875 0q0.546875 0 0.984375 -0.078125q0.453125 -0.078125 0.75 -0.234375q0.296875 -0.171875 0.46875 -0.46875q0.171875 -0.296875 0.171875 -0.765625q0 -0.4375 -0.171875 -0.71875q-0.171875 -0.296875 -0.46875 -0.46875q-0.296875 -0.171875 -0.6875 -0.234375q-0.375 -0.0625 -0.796875 -0.0625zm6.40094 0.921875q0.140625 0 0.3125 0.015625q0.171875 0.015625 0.328125 0.046875q0.171875 0.03125 0.296875 0.0625q0.140625 0.015625 0.21875 0.046875l-0.1875 0.890625q-0.109375 -0.046875 -0.390625 -0.109375q-0.28125 -0.0625 -0.71875 -0.0625q-0.296875 0 -0.578125 0.0625q-0.28125 0.0625 -0.359375 0.078125l0 4.8125l-1.03125 0l0 -5.484375q0.375 -0.125 0.90625 -0.234375q0.546875 -0.125 1.203125 -0.125zm3.0352325 5.84375l-1.03125 0l0 -5.71875l1.03125 0l0 5.71875zm-0.515625 -6.75q-0.28125 0 -0.484375 -0.171875q-0.1875 -0.1875 -0.1875 -0.5q0 -0.3125 0.1875 -0.484375q0.203125 -0.1875 0.484375 -0.1875q0.265625 0 0.453125 0.1875q0.203125 0.171875 0.203125 0.484375q0 0.3125 -0.203125 0.5q-0.1875 0.171875 -0.453125 0.171875zm6.649185 1.03125q-0.421875 1.609375 -1.0 3.078125q-0.578125 1.46875 -1.125 2.640625l-0.921875 0q-0.53125 -1.171875 -1.109375 -2.640625q-0.578125 -1.46875 -1.015625 -3.078125l1.109375 0q0.125 0.53125 0.296875 1.15625q0.1875 0.609375 0.390625 1.203125q0.203125 0.59375 0.40625 1.15625q0.21875 0.5625 0.40625 1.0q0.1875 -0.4375 0.390625 -1.0q0.21875 -0.5625 0.421875 -1.15625q0.203125 -0.59375 0.375 -1.203125q0.1875 -0.625 0.328125 -1.15625l1.046875 0zm2.8182373 4.984375q0.359375 0 0.640625 -0.015625q0.28125 -0.015625 0.46875 -0.0625l0 -1.703125q-0.109375 -0.0625 -0.359375 -0.09375q-0.234375 -0.046875 -0.59375 -0.046875q-0.234375 0 -0.5 0.046875q-0.25 0.03125 -0.46875 0.140625q-0.203125 0.09375 -0.359375 0.28125q-0.140625 0.171875 -0.140625 0.46875q0 0.546875 0.359375 0.765625q0.359375 0.21875 0.953125 0.21875zm-0.078125 -5.125q0.609375 0 1.03125 0.15625q0.421875 0.15625 0.671875 0.453125q0.265625 0.28125 0.375 0.6875q0.109375 0.40625 0.109375 0.890625l0 3.578125q-0.125 0.015625 -0.359375 0.0625q-0.234375 0.03125 -0.53125 0.0625q-0.296875 0.03125 -0.65625 0.0625q-0.34375 0.03125 -0.6875 0.03125q-0.46875 0 -0.890625 -0.109375q-0.40625 -0.09375 -0.703125 -0.296875q-0.296875 -0.21875 -0.46875 -0.5625q-0.15625 -0.359375 -0.15625 -0.859375q0 -0.46875 0.1875 -0.8125q0.203125 -0.34375 0.53125 -0.546875q0.328125 -0.21875 0.765625 -0.3125q0.4375 -0.09375 0.921875 -0.09375q0.15625 0 0.3125 0.015625q0.171875 0.015625 0.3125 0.046875q0.15625 0.015625 0.265625 0.046875q0.125 0.015625 0.15625 0.03125l0 -0.296875q0 -0.25 -0.0625 -0.484375q-0.046875 -0.25 -0.1875 -0.4375q-0.140625 -0.203125 -0.390625 -0.3125q-0.25 -0.125 -0.640625 -0.125q-0.5 0 -0.890625 0.078125q-0.375 0.0625 -0.5625 0.140625l-0.125 -0.84375q0.203125 -0.09375 0.65625 -0.171875q0.46875 -0.078125 1.015625 -0.078125zm4.671997 0.140625l2.15625 0l0 0.859375l-2.15625 0l0 2.640625q0 0.421875 0.0625 0.703125q0.0625 0.28125 0.1875 0.453125q0.140625 0.15625 0.328125 0.21875q0.203125 0.0625 0.46875 0.0625q0.46875 0 0.75 -0.09375q0.28125 -0.109375 0.390625 -0.15625l0.1875 0.84375q-0.15625 0.078125 -0.546875 0.1875q-0.375 0.125 -0.859375 0.125q-0.59375 0 -0.96875 -0.140625q-0.375 -0.15625 -0.609375 -0.453125q-0.234375 -0.296875 -0.328125 -0.734375q-0.09375 -0.4375 -0.09375 -1.015625l0 -5.09375l1.03125 -0.171875l0 1.765625zm3.0026093 2.875q0 -0.765625 0.21875 -1.328125q0.21875 -0.5625 0.578125 -0.9375q0.375 -0.375 0.84375 -0.5625q0.46875 -0.1875 0.96875 -0.1875q1.15625 0 1.765625 0.71875q0.625 0.71875 0.625 2.1875q0 0.078125 0 0.1875q0 0.09375 -0.015625 0.1875l-3.921875 0q0.0625 0.890625 0.515625 1.359375q0.453125 0.453125 1.40625 0.453125q0.546875 0 0.90625 -0.09375q0.375 -0.09375 0.5625 -0.1875l0.140625 0.859375q-0.1875 0.09375 -0.65625 0.203125q-0.46875 0.109375 -1.0625 0.109375q-0.75 0 -1.296875 -0.21875q-0.53125 -0.21875 -0.890625 -0.609375q-0.34375 -0.40625 -0.515625 -0.953125q-0.171875 -0.546875 -0.171875 -1.1875zm3.921875 -0.5625q0.015625 -0.703125 -0.34375 -1.140625q-0.359375 -0.453125 -0.984375 -0.453125q-0.34375 0 -0.625 0.140625q-0.265625 0.140625 -0.453125 0.359375q-0.1875 0.21875 -0.296875 0.515625q-0.09375 0.28125 -0.125 0.578125l2.828125 0zm8.152908 3.578125q-0.796875 0 -1.46875 -0.265625q-0.65625 -0.265625 -1.125 -0.765625q-0.46875 -0.515625 -0.734375 -1.25q-0.25 -0.75 -0.25 -1.703125q0 -0.96875 0.28125 -1.703125q0.296875 -0.75 0.796875 -1.25q0.5 -0.5 1.15625 -0.765625q0.65625 -0.265625 1.40625 -0.265625q0.46875 0 0.84375 0.0625q0.390625 0.0625 0.671875 0.15625q0.28125 0.09375 0.453125 0.1875q0.171875 0.078125 0.234375 0.125l-0.296875 0.875q-0.109375 -0.0625 -0.296875 -0.140625q-0.1875 -0.078125 -0.421875 -0.15625q-0.234375 -0.078125 -0.515625 -0.125q-0.28125 -0.046875 -0.5625 -0.046875q-0.609375 0 -1.09375 0.203125q-0.484375 0.203125 -0.828125 0.609375q-0.328125 0.390625 -0.515625 0.96875q-0.1875 0.5625 -0.1875 1.265625q0 0.671875 0.15625 1.234375q0.171875 0.5625 0.484375 0.96875q0.328125 0.40625 0.796875 0.625q0.484375 0.21875 1.125 0.21875q0.734375 0 1.21875 -0.15625q0.484375 -0.15625 0.71875 -0.28125l0.28125 0.890625q-0.078125 0.046875 -0.28125 0.140625q-0.1875 0.078125 -0.484375 0.15625q-0.296875 0.078125 -0.703125 0.125q-0.390625 0.0625 -0.859375 0.0625zm4.981949 -0.0625q-0.9375 -0.015625 -1.34375 -0.40625q-0.390625 -0.390625 -0.390625 -1.203125l0 -6.859375l1.015625 -0.171875l0 6.875q0 0.25 0.046875 0.421875q0.046875 0.15625 0.140625 0.265625q0.109375 0.09375 0.265625 0.140625q0.171875 0.046875 0.40625 0.078125l-0.140625 0.859375zm6.2373047 -2.96875q0 0.6875 -0.203125 1.234375q-0.1875 0.546875 -0.546875 0.953125q-0.359375 0.390625 -0.859375 0.609375q-0.484375 0.203125 -1.0625 0.203125q-0.59375 0 -1.09375 -0.203125q-0.484375 -0.21875 -0.84375 -0.609375q-0.359375 -0.40625 -0.5625 -0.953125q-0.1875 -0.546875 -0.1875 -1.234375q0 -0.671875 0.1875 -1.21875q0.203125 -0.5625 0.5625 -0.953125q0.359375 -0.40625 0.84375 -0.609375q0.5 -0.21875 1.09375 -0.21875q0.578125 0 1.0625 0.21875q0.5 0.203125 0.859375 0.609375q0.359375 0.390625 0.546875 0.953125q0.203125 0.546875 0.203125 1.21875zm-1.0625 0q0 -0.96875 -0.4375 -1.53125q-0.421875 -0.578125 -1.171875 -0.578125q-0.75 0 -1.1875 0.578125q-0.4375 0.5625 -0.4375 1.53125q0 0.96875 0.4375 1.53125q0.4375 0.5625 1.1875 0.5625q0.75 0 1.171875 -0.5625q0.4375 -0.5625 0.4375 -1.53125zm6.8653717 2.6875q-0.359375 0.09375 -0.9375 0.1875q-0.578125 0.109375 -1.328125 0.109375q-0.65625 0 -1.109375 -0.1875q-0.453125 -0.203125 -0.734375 -0.546875q-0.265625 -0.359375 -0.390625 -0.828125q-0.125 -0.484375 -0.125 -1.078125l0 -3.203125l1.03125 0l0 2.984375q0 1.046875 0.328125 1.5q0.328125 0.453125 1.109375 0.453125q0.15625 0 0.328125 0q0.1875 -0.015625 0.34375 -0.03125q0.15625 -0.03125 0.28125 -0.046875q0.125 -0.015625 0.171875 -0.03125l0 -4.828125l1.03125 0l0 5.546875zm5.25737 -4.34375q-0.1875 -0.140625 -0.546875 -0.28125q-0.34375 -0.15625 -0.765625 -0.15625q-0.4375 0 -0.75 0.171875q-0.3125 0.15625 -0.515625 0.4375q-0.203125 0.28125 -0.296875 0.671875q-0.078125 0.375 -0.078125 0.8125q0 1.0 0.5 1.546875q0.5 0.546875 1.3125 0.546875q0.421875 0 0.703125 -0.03125q0.28125 -0.046875 0.4375 -0.09375l0 -3.625zm0 -3.84375l1.015625 -0.171875l0 8.359375q-0.34375 0.109375 -0.90625 0.203125q-0.546875 0.09375 -1.25 0.09375q-0.671875 0 -1.203125 -0.203125q-0.515625 -0.203125 -0.890625 -0.59375q-0.375 -0.390625 -0.578125 -0.9375q-0.203125 -0.5625 -0.203125 -1.25q0 -0.65625 0.171875 -1.203125q0.171875 -0.5625 0.5 -0.953125q0.328125 -0.390625 0.796875 -0.609375q0.484375 -0.234375 1.109375 -0.234375q0.484375 0 0.859375 0.140625q0.390625 0.125 0.578125 0.25l0 -2.890625z" fill-rule="nonzero"></path><path fill="#f6b26b" d="m94.67191 91.876724l269.03937 0l0 176.37794l-269.03937 0z" fill-rule="nonzero"></path><path stroke="#434343" stroke-width="1.0" stroke-linejoin="round" stroke-linecap="butt" stroke-dasharray="4.0,3.0" d="m94.67191 91.876724l269.03937 0l0 176.37794l-269.03937 0z" fill-rule="nonzero"></path><path fill="#000000" fill-opacity="0.0" d="m92.960754 86.30708l67.433075 0l0 26.614174l-67.433075 0z" fill-rule="nonzero"></path><path fill="#666666" d="m104.679504 104.78146q1.671875 0 1.671875 -1.140625q0 -0.34375 -0.15625 -0.59375q-0.140625 -0.25 -0.390625 -0.421875q-0.25 -0.1875 -0.578125 -0.3125q-0.328125 -0.140625 -0.6875 -0.28125q-0.421875 -0.140625 -0.796875 -0.3125q-0.375 -0.1875 -0.65625 -0.4375q-0.265625 -0.25 -0.4375 -0.578125q-0.15625 -0.34375 -0.15625 -0.828125q0 -1.0 0.6875 -1.5625q0.6875 -0.5625 1.890625 -0.5625q0.6875 0 1.25 0.15625q0.5625 0.140625 0.828125 0.3125l-0.34375 0.875q-0.21875 -0.140625 -0.6875 -0.28125q-0.453125 -0.140625 -1.046875 -0.140625q-0.3125 0 -0.578125 0.0625q-0.265625 0.0625 -0.46875 0.203125q-0.1875 0.125 -0.3125 0.328125q-0.109375 0.203125 -0.109375 0.484375q0 0.3125 0.109375 0.515625q0.125 0.203125 0.34375 0.375q0.234375 0.15625 0.515625 0.296875q0.296875 0.125 0.640625 0.25q0.5 0.203125 0.90625 0.40625q0.421875 0.1875 0.71875 0.46875q0.3125 0.265625 0.46875 0.65625q0.171875 0.375 0.171875 0.921875q0 1.0 -0.734375 1.546875q-0.734375 0.53125 -2.0625 0.53125q-0.453125 0 -0.84375 -0.0625q-0.375 -0.0625 -0.671875 -0.140625q-0.296875 -0.09375 -0.515625 -0.1875q-0.203125 -0.09375 -0.328125 -0.15625l0.328125 -0.875q0.25 0.140625 0.765625 0.3125q0.515625 0.171875 1.265625 0.171875zm8.387939 0.59375q-0.359375 0.09375 -0.9375 0.1875q-0.578125 0.109375 -1.328125 0.109375q-0.65625 0 -1.109375 -0.1875q-0.453125 -0.203125 -0.734375 -0.546875q-0.265625 -0.359375 -0.390625 -0.828125q-0.125 -0.484375 -0.125 -1.078125l0 -3.203125l1.03125 0l0 2.984375q0 1.046875 0.328125 1.5q0.328125 0.453125 1.109375 0.453125q0.15625 0 0.328125 0q0.1875 -0.015625 0.34375 -0.03125q0.15625 -0.03125 0.28125 -0.046875q0.125 -0.015625 0.171875 -0.03125l0 -4.828125l1.03125 0l0 5.546875zm2.585495 -5.296875q0.1875 -0.125 0.5625 -0.25q0.375 -0.140625 0.875 -0.140625q0.609375 0 1.09375 0.234375q0.484375 0.21875 0.8125 0.609375q0.328125 0.390625 0.5 0.953125q0.171875 0.546875 0.171875 1.203125q0 0.6875 -0.203125 1.25q-0.203125 0.546875 -0.578125 0.9375q-0.375 0.390625 -0.90625 0.59375q-0.53125 0.203125 -1.1875 0.203125q-0.71875 0 -1.265625 -0.09375q-0.546875 -0.09375 -0.90625 -0.203125l0 -8.1875l1.03125 -0.171875l0 3.0625zm0 4.578125q0.15625 0.046875 0.4375 0.09375q0.28125 0.03125 0.6875 0.03125q0.828125 0 1.3125 -0.546875q0.5 -0.546875 0.5 -1.546875q0 -0.4375 -0.09375 -0.8125q-0.078125 -0.390625 -0.28125 -0.671875q-0.1875 -0.28125 -0.5 -0.4375q-0.3125 -0.171875 -0.75 -0.171875q-0.421875 0 -0.78125 0.15625q-0.34375 0.140625 -0.53125 0.28125l0 3.625zm5.245346 -4.671875q0.359375 -0.078125 0.9375 -0.171875q0.578125 -0.109375 1.34375 -0.109375q0.6875 0 1.125 0.203125q0.453125 0.1875 0.71875 0.53125q0.28125 0.34375 0.390625 0.828125q0.109375 0.484375 0.109375 1.0625l0 3.21875l-1.015625 0l0 -2.984375q0 -0.53125 -0.078125 -0.90625q-0.078125 -0.375 -0.25 -0.609375q-0.15625 -0.234375 -0.4375 -0.328125q-0.265625 -0.109375 -0.671875 -0.109375q-0.171875 0 -0.34375 0.015625q-0.171875 0 -0.328125 0.015625q-0.15625 0.015625 -0.296875 0.046875q-0.125 0.015625 -0.171875 0.03125l0 4.828125l-1.03125 0l0 -5.5625zm5.804245 2.71875q0 -0.765625 0.21875 -1.328125q0.21875 -0.5625 0.578125 -0.9375q0.375 -0.375 0.84375 -0.5625q0.46875 -0.1875 0.96875 -0.1875q1.15625 0 1.765625 0.71875q0.625 0.71875 0.625 2.1875q0 0.078125 0 0.1875q0 0.09375 -0.015625 0.1875l-3.921875 0q0.0625 0.890625 0.515625 1.359375q0.453125 0.453125 1.40625 0.453125q0.546875 0 0.90625 -0.09375q0.375 -0.09375 0.5625 -0.1875l0.140625 0.859375q-0.1875 0.09375 -0.65625 0.203125q-0.46875 0.109375 -1.0625 0.109375q-0.75 0 -1.296875 -0.21875q-0.53125 -0.21875 -0.890625 -0.609375q-0.34375 -0.40625 -0.515625 -0.953125q-0.171875 -0.546875 -0.171875 -1.1875zm3.921875 -0.5625q0.015625 -0.703125 -0.34375 -1.140625q-0.359375 -0.453125 -0.984375 -0.453125q-0.34375 0 -0.625 0.140625q-0.265625 0.140625 -0.453125 0.359375q-0.1875 0.21875 -0.296875 0.515625q-0.09375 0.28125 -0.125 0.578125l2.828125 0zm3.3162842 -2.3125l2.15625 0l0 0.859375l-2.15625 0l0 2.640625q0 0.421875 0.0625 0.703125q0.0625 0.28125 0.1875 0.453125q0.140625 0.15625 0.328125 0.21875q0.203125 0.0625 0.46875 0.0625q0.46875 0 0.75 -0.09375q0.28125 -0.109375 0.390625 -0.15625l0.1875 0.84375q-0.15625 0.078125 -0.546875 0.1875q-0.375 0.125 -0.859375 0.125q-0.59375 0 -0.96875 -0.140625q-0.375 -0.15625 -0.609375 -0.453125q-0.234375 -0.296875 -0.328125 -0.734375q-0.09375 -0.4375 -0.09375 -1.015625l0 -5.09375l1.03125 -0.171875l0 1.765625z" fill-rule="nonzero"></path><path fill="#c9daf8" d="m108.05513 121.971375l93.76378 0l0 53.95276l-93.76378 0z" fill-rule="nonzero"></path><path stroke="#666666" stroke-width="1.0" stroke-linejoin="round" stroke-linecap="butt" d="m108.05513 121.971375l93.76378 0l0 53.95276l-93.76378 0z" fill-rule="nonzero"></path><path fill="#000000" fill-opacity="0.0" d="m103.78606 116.82865l86.92914 0l0 26.614174l-86.92914 0z" fill-rule="nonzero"></path><path fill="#666666" d="m113.73918 136.06865l0 -7.625l4.640625 0l0 0.921875l-3.578125 0l0 2.265625l3.1875 0l0 0.890625l-3.1875 0l0 2.640625l3.859375 0l0 0.90625l-4.921875 0zm9.350403 0.171875q-0.796875 0 -1.46875 -0.265625q-0.65625 -0.265625 -1.125 -0.765625q-0.46875 -0.515625 -0.734375 -1.25q-0.25 -0.75 -0.25 -1.703125q0 -0.96875 0.28125 -1.703125q0.296875 -0.75 0.796875 -1.25q0.5 -0.5 1.15625 -0.765625q0.65625 -0.265625 1.40625 -0.265625q0.46875 0 0.84375 0.0625q0.390625 0.0625 0.671875 0.15625q0.28125 0.09375 0.453125 0.1875q0.171875 0.078125 0.234375 0.125l-0.296875 0.875q-0.109375 -0.0625 -0.296875 -0.140625q-0.1875 -0.078125 -0.421875 -0.15625q-0.234375 -0.078125 -0.515625 -0.125q-0.28125 -0.046875 -0.5625 -0.046875q-0.609375 0 -1.09375 0.203125q-0.484375 0.203125 -0.828125 0.609375q-0.328125 0.390625 -0.515625 0.96875q-0.1875 0.5625 -0.1875 1.265625q0 0.671875 0.15625 1.234375q0.171875 0.5625 0.484375 0.96875q0.328125 0.40625 0.796875 0.625q0.484375 0.21875 1.125 0.21875q0.734375 0 1.21875 -0.15625q0.484375 -0.15625 0.71875 -0.28125l0.28125 0.890625q-0.078125 0.046875 -0.28125 0.140625q-0.1875 0.078125 -0.484375 0.15625q-0.296875 0.078125 -0.703125 0.125q-0.390625 0.0625 -0.859375 0.0625zm7.528824 -5.84375q0 0.390625 -0.171875 0.765625q-0.15625 0.359375 -0.421875 0.71875q-0.25 0.359375 -0.59375 0.703125q-0.328125 0.34375 -0.65625 0.671875q-0.1875 0.1875 -0.4375 0.453125q-0.234375 0.25 -0.46875 0.53125q-0.21875 0.265625 -0.375 0.515625q-0.140625 0.25 -0.140625 0.4375l3.515625 0l0 0.875l-4.625 0q0 -0.0625 0 -0.125q0 -0.078125 0 -0.125q0 -0.515625 0.15625 -0.953125q0.171875 -0.453125 0.453125 -0.84375q0.28125 -0.40625 0.609375 -0.75q0.34375 -0.359375 0.671875 -0.6875q0.28125 -0.265625 0.53125 -0.515625q0.25 -0.265625 0.4375 -0.515625q0.1875 -0.265625 0.296875 -0.53125q0.125 -0.28125 0.125 -0.59375q0 -0.328125 -0.109375 -0.5625q-0.09375 -0.234375 -0.28125 -0.390625q-0.171875 -0.15625 -0.40625 -0.21875q-0.234375 -0.078125 -0.5 -0.078125q-0.3125 0 -0.578125 0.09375q-0.265625 0.09375 -0.484375 0.203125q-0.203125 0.109375 -0.34375 0.25q-0.140625 0.125 -0.21875 0.1875l-0.515625 -0.734375q0.109375 -0.109375 0.296875 -0.265625q0.203125 -0.15625 0.46875 -0.296875q0.28125 -0.140625 0.625 -0.234375q0.34375 -0.109375 0.734375 -0.109375q1.203125 0 1.796875 0.5625q0.609375 0.546875 0.609375 1.5625zm4.284317 -1.953125l1.0625 0l0 7.625l-1.0625 0l0 -7.625zm2.788437 2.0625q0.359375 -0.078125 0.9375 -0.171875q0.578125 -0.109375 1.34375 -0.109375q0.6875 0 1.125 0.203125q0.453125 0.1875 0.71875 0.53125q0.28125 0.34375 0.390625 0.828125q0.109375 0.484375 0.109375 1.0625l0 3.21875l-1.015625 0l0 -2.984375q0 -0.53125 -0.078125 -0.90625q-0.078125 -0.375 -0.25 -0.609375q-0.15625 -0.234375 -0.4375 -0.328125q-0.265625 -0.109375 -0.671875 -0.109375q-0.171875 0 -0.34375 0.015625q-0.171875 0 -0.328125 0.015625q-0.15625 0.015625 -0.296875 0.046875q-0.125 0.015625 -0.171875 0.03125l0 4.828125l-1.03125 0l0 -5.5625zm7.460495 4.828125q0.625 0 0.921875 -0.15625q0.296875 -0.171875 0.296875 -0.546875q0 -0.359375 -0.296875 -0.578125q-0.296875 -0.234375 -0.96875 -0.5q-0.328125 -0.140625 -0.640625 -0.265625q-0.296875 -0.140625 -0.515625 -0.328125q-0.21875 -0.1875 -0.359375 -0.453125q-0.125 -0.265625 -0.125 -0.65625q0 -0.75 0.5625 -1.1875q0.5625 -0.453125 1.53125 -0.453125q0.234375 0 0.46875 0.03125q0.25 0.015625 0.453125 0.0625q0.21875 0.03125 0.375 0.078125q0.15625 0.046875 0.25 0.078125l-0.1875 0.875q-0.171875 -0.078125 -0.53125 -0.171875q-0.34375 -0.09375 -0.828125 -0.09375q-0.4375 0 -0.765625 0.171875q-0.3125 0.171875 -0.3125 0.53125q0 0.1875 0.0625 0.328125q0.078125 0.140625 0.21875 0.265625q0.15625 0.109375 0.375 0.203125q0.234375 0.09375 0.53125 0.21875q0.40625 0.140625 0.71875 0.296875q0.328125 0.140625 0.546875 0.34375q0.234375 0.203125 0.359375 0.484375q0.125 0.28125 0.125 0.6875q0 0.78125 -0.59375 1.1875q-0.59375 0.40625 -1.671875 0.40625q-0.765625 0 -1.203125 -0.125q-0.421875 -0.125 -0.578125 -0.1875l0.1875 -0.875q0.171875 0.0625 0.5625 0.203125q0.390625 0.125 1.03125 0.125zm4.3777313 -4.984375l2.15625 0l0 0.859375l-2.15625 0l0 2.640625q0 0.421875 0.0625 0.703125q0.0625 0.28125 0.1875 0.453125q0.140625 0.15625 0.328125 0.21875q0.203125 0.0625 0.46875 0.0625q0.46875 0 0.75 -0.09375q0.28125 -0.109375 0.390625 -0.15625l0.1875 0.84375q-0.15625 0.078125 -0.546875 0.1875q-0.375 0.125 -0.859375 0.125q-0.59375 0 -0.96875 -0.140625q-0.375 -0.15625 -0.609375 -0.453125q-0.234375 -0.296875 -0.328125 -0.734375q-0.09375 -0.4375 -0.09375 -1.015625l0 -5.09375l1.03125 -0.171875l0 1.765625zm5.2526093 4.984375q0.359375 0 0.640625 -0.015625q0.28125 -0.015625 0.46875 -0.0625l0 -1.703125q-0.109375 -0.0625 -0.359375 -0.09375q-0.234375 -0.046875 -0.59375 -0.046875q-0.234375 0 -0.5 0.046875q-0.25 0.03125 -0.46875 0.140625q-0.203125 0.09375 -0.359375 0.28125q-0.140625 0.171875 -0.140625 0.46875q0 0.546875 0.359375 0.765625q0.359375 0.21875 0.953125 0.21875zm-0.078125 -5.125q0.609375 0 1.03125 0.15625q0.421875 0.15625 0.671875 0.453125q0.265625 0.28125 0.375 0.6875q0.109375 0.40625 0.109375 0.890625l0 3.578125q-0.125 0.015625 -0.359375 0.0625q-0.234375 0.03125 -0.53125 0.0625q-0.296875 0.03125 -0.65625 0.0625q-0.34375 0.03125 -0.6875 0.03125q-0.46875 0 -0.890625 -0.109375q-0.40625 -0.09375 -0.703125 -0.296875q-0.296875 -0.21875 -0.46875 -0.5625q-0.15625 -0.359375 -0.15625 -0.859375q0 -0.46875 0.1875 -0.8125q0.203125 -0.34375 0.53125 -0.546875q0.328125 -0.21875 0.765625 -0.3125q0.4375 -0.09375 0.921875 -0.09375q0.15625 0 0.3125 0.015625q0.171875 0.015625 0.3125 0.046875q0.15625 0.015625 0.265625 0.046875q0.125 0.015625 0.15625 0.03125l0 -0.296875q0 -0.25 -0.0625 -0.484375q-0.046875 -0.25 -0.1875 -0.4375q-0.140625 -0.203125 -0.390625 -0.3125q-0.25 -0.125 -0.640625 -0.125q-0.5 0 -0.890625 0.078125q-0.375 0.0625 -0.5625 0.140625l-0.125 -0.84375q0.203125 -0.09375 0.65625 -0.171875q0.46875 -0.078125 1.015625 -0.078125zm3.703247 0.296875q0.359375 -0.078125 0.9375 -0.171875q0.578125 -0.109375 1.34375 -0.109375q0.6875 0 1.125 0.203125q0.453125 0.1875 0.71875 0.53125q0.28125 0.34375 0.390625 0.828125q0.109375 0.484375 0.109375 1.0625l0 3.21875l-1.015625 0l0 -2.984375q0 -0.53125 -0.078125 -0.90625q-0.078125 -0.375 -0.25 -0.609375q-0.15625 -0.234375 -0.4375 -0.328125q-0.265625 -0.109375 -0.671875 -0.109375q-0.171875 0 -0.34375 0.015625q-0.171875 0 -0.328125 0.015625q-0.15625 0.015625 -0.296875 0.046875q-0.125 0.015625 -0.171875 0.03125l0 4.828125l-1.03125 0l0 -5.5625zm8.60112 5.6875q-0.6875 0 -1.21875 -0.21875q-0.515625 -0.21875 -0.875 -0.609375q-0.359375 -0.390625 -0.53125 -0.9375q-0.171875 -0.546875 -0.171875 -1.203125q0 -0.671875 0.1875 -1.21875q0.203125 -0.546875 0.546875 -0.9375q0.359375 -0.40625 0.859375 -0.625q0.515625 -0.234375 1.140625 -0.234375q0.390625 0 0.765625 0.0625q0.390625 0.0625 0.75 0.203125l-0.234375 0.875q-0.234375 -0.109375 -0.546875 -0.171875q-0.296875 -0.078125 -0.625 -0.078125q-0.859375 0 -1.328125 0.546875q-0.453125 0.53125 -0.453125 1.578125q0 0.453125 0.109375 0.84375q0.109375 0.390625 0.328125 0.671875q0.21875 0.265625 0.5625 0.421875q0.359375 0.140625 0.875 0.140625q0.40625 0 0.734375 -0.078125q0.328125 -0.078125 0.515625 -0.171875l0.140625 0.859375q-0.078125 0.0625 -0.25 0.109375q-0.15625 0.046875 -0.375 0.078125q-0.203125 0.046875 -0.4375 0.0625q-0.234375 0.03125 -0.46875 0.03125zm2.1583252 -2.96875q0 -0.765625 0.21875 -1.328125q0.21875 -0.5625 0.578125 -0.9375q0.375 -0.375 0.84375 -0.5625q0.46875 -0.1875 0.96875 -0.1875q1.15625 0 1.765625 0.71875q0.625 0.71875 0.625 2.1875q0 0.078125 0 0.1875q0 0.09375 -0.015625 0.1875l-3.921875 0q0.0625 0.890625 0.515625 1.359375q0.453125 0.453125 1.40625 0.453125q0.546875 0 0.90625 -0.09375q0.375 -0.09375 0.5625 -0.1875l0.140625 0.859375q-0.1875 0.09375 -0.65625 0.203125q-0.46875 0.109375 -1.0625 0.109375q-0.75 0 -1.296875 -0.21875q-0.53125 -0.21875 -0.890625 -0.609375q-0.34375 -0.40625 -0.515625 -0.953125q-0.171875 -0.546875 -0.171875 -1.1875zm3.921875 -0.5625q0.015625 -0.703125 -0.34375 -1.140625q-0.359375 -0.453125 -0.984375 -0.453125q-0.34375 0 -0.625 0.140625q-0.265625 0.140625 -0.453125 0.359375q-0.1875 0.21875 -0.296875 0.515625q-0.09375 0.28125 -0.125 0.578125l2.828125 0z" fill-rule="nonzero"></path><path fill="#a2c4c9" d="m201.9638 156.73978l0 -17.002625l10.64357 0l2.6608887 8.501312l-2.6608887 8.501312z" fill-rule="nonzero"></path><path stroke="#434343" stroke-width="1.0" stroke-linejoin="round" stroke-linecap="butt" d="m201.9638 156.73978l0 -17.002625l10.64357 0l2.6608887 8.501312l-2.6608887 8.501312z" fill-rule="nonzero"></path><path fill="#000000" fill-opacity="0.0" d="m209.73993 141.70058l67.433075 0l0 45.795273l-67.433075 0z" fill-rule="nonzero"></path><path fill="#666666" d="m221.45868 160.17494q1.671875 0 1.671875 -1.140625q0 -0.34375 -0.15625 -0.59375q-0.140625 -0.25 -0.390625 -0.421875q-0.25 -0.1875 -0.578125 -0.3125q-0.328125 -0.140625 -0.6875 -0.28125q-0.421875 -0.140625 -0.796875 -0.3125q-0.375 -0.1875 -0.65625 -0.4375q-0.265625 -0.25 -0.4375 -0.578125q-0.15625 -0.34375 -0.15625 -0.828125q0 -1.0 0.6875 -1.5625q0.6875 -0.5625 1.890625 -0.5625q0.6875 0 1.25 0.15625q0.5625 0.140625 0.828125 0.3125l-0.34375 0.875q-0.21875 -0.140625 -0.6875 -0.28125q-0.453125 -0.140625 -1.046875 -0.140625q-0.3125 0 -0.578125 0.0625q-0.265625 0.0625 -0.46875 0.203125q-0.1875 0.125 -0.3125 0.328125q-0.109375 0.203125 -0.109375 0.484375q0 0.3125 0.109375 0.515625q0.125 0.203125 0.34375 0.375q0.234375 0.15625 0.515625 0.296875q0.296875 0.125 0.640625 0.25q0.5 0.203125 0.90625 0.40625q0.421875 0.1875 0.71875 0.46875q0.3125 0.265625 0.46875 0.65625q0.171875 0.375 0.171875 0.921875q0 1.0 -0.734375 1.546875q-0.734375 0.53125 -2.0625 0.53125q-0.453125 0 -0.84375 -0.0625q-0.375 -0.0625 -0.671875 -0.140625q-0.296875 -0.09375 -0.515625 -0.1875q-0.203125 -0.09375 -0.328125 -0.15625l0.328125 -0.875q0.25 0.140625 0.765625 0.3125q0.515625 0.171875 1.265625 0.171875zm3.5129395 -2.078125q0 -0.765625 0.21875 -1.328125q0.21875 -0.5625 0.578125 -0.9375q0.375 -0.375 0.84375 -0.5625q0.46875 -0.1875 0.96875 -0.1875q1.15625 0 1.765625 0.71875q0.625 0.71875 0.625 2.1875q0 0.078125 0 0.1875q0 0.09375 -0.015625 0.1875l-3.921875 0q0.0625 0.890625 0.515625 1.359375q0.453125 0.453125 1.40625 0.453125q0.546875 0 0.90625 -0.09375q0.375 -0.09375 0.5625 -0.1875l0.140625 0.859375q-0.1875 0.09375 -0.65625 0.203125q-0.46875 0.109375 -1.0625 0.109375q-0.75 0 -1.296875 -0.21875q-0.53125 -0.21875 -0.890625 -0.609375q-0.34375 -0.40625 -0.515625 -0.953125q-0.171875 -0.546875 -0.171875 -1.1875zm3.921875 -0.5625q0.015625 -0.703125 -0.34375 -1.140625q-0.359375 -0.453125 -0.984375 -0.453125q-0.34375 0 -0.625 0.140625q-0.265625 0.140625 -0.453125 0.359375q-0.1875 0.21875 -0.296875 0.515625q-0.09375 0.28125 -0.125 0.578125l2.828125 0zm4.831909 3.53125q-0.6875 0 -1.21875 -0.21875q-0.515625 -0.21875 -0.875 -0.609375q-0.359375 -0.390625 -0.53125 -0.9375q-0.171875 -0.546875 -0.171875 -1.203125q0 -0.671875 0.1875 -1.21875q0.203125 -0.546875 0.546875 -0.9375q0.359375 -0.40625 0.859375 -0.625q0.515625 -0.234375 1.140625 -0.234375q0.390625 0 0.765625 0.0625q0.390625 0.0625 0.75 0.203125l-0.234375 0.875q-0.234375 -0.109375 -0.546875 -0.171875q-0.296875 -0.078125 -0.625 -0.078125q-0.859375 0 -1.328125 0.546875q-0.453125 0.53125 -0.453125 1.578125q0 0.453125 0.109375 0.84375q0.109375 0.390625 0.328125 0.671875q0.21875 0.265625 0.5625 0.421875q0.359375 0.140625 0.875 0.140625q0.40625 0 0.734375 -0.078125q0.328125 -0.078125 0.515625 -0.171875l0.140625 0.859375q-0.078125 0.0625 -0.25 0.109375q-0.15625 0.046875 -0.375 0.078125q-0.203125 0.046875 -0.4375 0.0625q-0.234375 0.03125 -0.46875 0.03125zm7.033325 -0.296875q-0.359375 0.09375 -0.9375 0.1875q-0.578125 0.109375 -1.328125 0.109375q-0.65625 0 -1.109375 -0.1875q-0.453125 -0.203125 -0.734375 -0.546875q-0.265625 -0.359375 -0.390625 -0.828125q-0.125 -0.484375 -0.125 -1.078125l0 -3.203125l1.03125 0l0 2.984375q0 1.046875 0.328125 1.5q0.328125 0.453125 1.109375 0.453125q0.15625 0 0.328125 0q0.1875 -0.015625 0.34375 -0.03125q0.15625 -0.03125 0.28125 -0.046875q0.125 -0.015625 0.171875 -0.03125l0 -4.828125l1.03125 0l0 5.546875zm3.66362 -5.671875q0.140625 0 0.3125 0.015625q0.171875 0.015625 0.328125 0.046875q0.171875 0.03125 0.296875 0.0625q0.140625 0.015625 0.21875 0.046875l-0.1875 0.890625q-0.109375 -0.046875 -0.390625 -0.109375q-0.28125 -0.0625 -0.71875 -0.0625q-0.296875 0 -0.578125 0.0625q-0.28125 0.0625 -0.359375 0.078125l0 4.8125l-1.03125 0l0 -5.484375q0.375 -0.125 0.90625 -0.234375q0.546875 -0.125 1.203125 -0.125zm3.0352325 5.84375l-1.03125 0l0 -5.71875l1.03125 0l0 5.71875zm-0.515625 -6.75q-0.28125 0 -0.484375 -0.171875q-0.1875 -0.1875 -0.1875 -0.5q0 -0.3125 0.1875 -0.484375q0.203125 -0.1875 0.484375 -0.1875q0.265625 0 0.453125 0.1875q0.203125 0.171875 0.203125 0.484375q0 0.3125 -0.203125 0.5q-0.1875 0.171875 -0.453125 0.171875zm3.1491852 1.03125l2.15625 0l0 0.859375l-2.15625 0l0 2.640625q0 0.421875 0.0625 0.703125q0.0625 0.28125 0.1875 0.453125q0.140625 0.15625 0.328125 0.21875q0.203125 0.0625 0.46875 0.0625q0.46875 0 0.75 -0.09375q0.28125 -0.109375 0.390625 -0.15625l0.1875 0.84375q-0.15625 0.078125 -0.546875 0.1875q-0.375 0.125 -0.859375 0.125q-0.59375 0 -0.96875 -0.140625q-0.375 -0.15625 -0.609375 -0.453125q-0.234375 -0.296875 -0.328125 -0.734375q-0.09375 -0.4375 -0.09375 -1.015625l0 -5.09375l1.03125 -0.171875l0 1.765625zm2.6432343 6.78125q0.125 0.0625 0.3125 0.109375q0.203125 0.046875 0.390625 0.046875q0.59375 0 0.9375 -0.265625q0.34375 -0.265625 0.625 -0.875q-0.703125 -1.328125 -1.296875 -2.796875q-0.59375 -1.484375 -1.0 -3.0l1.109375 0q0.109375 0.5 0.28125 1.078125q0.171875 0.5625 0.375 1.171875q0.21875 0.59375 0.453125 1.203125q0.25 0.609375 0.515625 1.171875q0.421875 -1.15625 0.71875 -2.28125q0.3125 -1.140625 0.59375 -2.34375l1.046875 0q-0.390625 1.609375 -0.875 3.109375q-0.484375 1.484375 -1.046875 2.78125q-0.21875 0.5 -0.453125 0.859375q-0.234375 0.359375 -0.53125 0.578125q-0.28125 0.234375 -0.640625 0.34375q-0.359375 0.109375 -0.8125 0.109375q-0.109375 0 -0.25 -0.015625q-0.125 -0.015625 -0.25 -0.046875q-0.125 -0.015625 -0.234375 -0.0625q-0.109375 -0.03125 -0.15625 -0.046875l0.1875 -0.828125z" fill-rule="nonzero"></path><path fill="#666666" d="m224.33368 170.19057l1.078125 0l0 3.5625q-0.140625 0.046875 -0.390625 0.109375q-0.25 0.046875 -0.578125 0.09375q-0.3125 0.0625 -0.703125 0.09375q-0.375 0.046875 -0.78125 0.046875q-0.796875 0 -1.46875 -0.265625q-0.65625 -0.265625 -1.125 -0.765625q-0.46875 -0.515625 -0.734375 -1.25q-0.25 -0.734375 -0.25 -1.6875q0 -0.96875 0.28125 -1.703125q0.296875 -0.75 0.796875 -1.25q0.5 -0.5 1.15625 -0.765625q0.671875 -0.265625 1.421875 -0.265625q0.515625 0 0.921875 0.0625q0.40625 0.0625 0.6875 0.15625q0.28125 0.09375 0.46875 0.1875q0.1875 0.078125 0.25 0.125l-0.34375 0.890625q-0.3125 -0.21875 -0.84375 -0.34375q-0.53125 -0.140625 -1.078125 -0.140625q-0.59375 0 -1.078125 0.203125q-0.46875 0.203125 -0.8125 0.609375q-0.328125 0.390625 -0.515625 0.96875q-0.1875 0.5625 -0.1875 1.265625q0 0.671875 0.15625 1.234375q0.171875 0.5625 0.484375 0.96875q0.328125 0.40625 0.8125 0.625q0.484375 0.21875 1.125 0.21875q0.46875 0 0.78125 -0.046875q0.328125 -0.0625 0.46875 -0.09375l0 -2.84375zm4.551697 -2.09375q0.140625 0 0.3125 0.015625q0.171875 0.015625 0.328125 0.046875q0.171875 0.03125 0.296875 0.0625q0.140625 0.015625 0.21875 0.046875l-0.1875 0.890625q-0.109375 -0.046875 -0.390625 -0.109375q-0.28125 -0.0625 -0.71875 -0.0625q-0.296875 0 -0.578125 0.0625q-0.28125 0.0625 -0.359375 0.078125l0 4.8125l-1.03125 0l0 -5.484375q0.375 -0.125 0.90625 -0.234375q0.546875 -0.125 1.203125 -0.125zm7.0508575 2.984375q0 0.6875 -0.203125 1.234375q-0.1875 0.546875 -0.546875 0.953125q-0.359375 0.390625 -0.859375 0.609375q-0.484375 0.203125 -1.0625 0.203125q-0.59375 0 -1.09375 -0.203125q-0.484375 -0.21875 -0.84375 -0.609375q-0.359375 -0.40625 -0.5625 -0.953125q-0.1875 -0.546875 -0.1875 -1.234375q0 -0.671875 0.1875 -1.21875q0.203125 -0.5625 0.5625 -0.953125q0.359375 -0.40625 0.84375 -0.609375q0.5 -0.21875 1.09375 -0.21875q0.578125 0 1.0625 0.21875q0.5 0.203125 0.859375 0.609375q0.359375 0.390625 0.546875 0.953125q0.203125 0.546875 0.203125 1.21875zm-1.0625 0q0 -0.96875 -0.4375 -1.53125q-0.421875 -0.578125 -1.171875 -0.578125q-0.75 0 -1.1875 0.578125q-0.4375 0.5625 -0.4375 1.53125q0 0.96875 0.4375 1.53125q0.4375 0.5625 1.1875 0.5625q0.75 0 1.171875 -0.5625q0.4375 -0.5625 0.4375 -1.53125zm6.8653717 2.6875q-0.359375 0.09375 -0.9375 0.1875q-0.578125 0.109375 -1.328125 0.109375q-0.65625 0 -1.109375 -0.1875q-0.453125 -0.203125 -0.734375 -0.546875q-0.265625 -0.359375 -0.390625 -0.828125q-0.125 -0.484375 -0.125 -1.078125l0 -3.203125l1.03125 0l0 2.984375q0 1.046875 0.328125 1.5q0.328125 0.453125 1.109375 0.453125q0.15625 0 0.328125 0q0.1875 -0.015625 0.34375 -0.03125q0.15625 -0.03125 0.28125 -0.046875q0.125 -0.015625 0.171875 -0.03125l0 -4.828125l1.03125 0l0 5.546875zm5.522995 -2.671875q0 -1.0 -0.5 -1.53125q-0.484375 -0.546875 -1.3125 -0.546875q-0.453125 0 -0.71875 0.03125q-0.25 0.03125 -0.40625 0.078125l0 3.609375q0.1875 0.140625 0.53125 0.296875q0.359375 0.140625 0.78125 0.140625q0.4375 0 0.75 -0.15625q0.3125 -0.171875 0.5 -0.453125q0.203125 -0.28125 0.28125 -0.65625q0.09375 -0.375 0.09375 -0.8125zm1.078125 0q0 0.640625 -0.171875 1.203125q-0.171875 0.546875 -0.5 0.9375q-0.328125 0.390625 -0.8125 0.609375q-0.484375 0.21875 -1.09375 0.21875q-0.5 0 -0.875 -0.125q-0.375 -0.125 -0.5625 -0.25l0 2.28125l-1.03125 0l0 -7.578125q0.375 -0.078125 0.90625 -0.1875q0.546875 -0.109375 1.265625 -0.109375q0.65625 0 1.1875 0.21875q0.53125 0.203125 0.90625 0.59375q0.375 0.375 0.578125 0.9375q0.203125 0.546875 0.203125 1.25z" fill-rule="nonzero"></path><path fill="#000000" fill-opacity="0.0" d="m214.37457 147.84514l75.02362 0l0 0.06300354l75.02362 0" fill-rule="nonzero"></path><path stroke="#666666" stroke-width="1.0" stroke-linejoin="round" stroke-linecap="butt" d="m214.37457 147.84514l75.02362 0l0 0.06300354l75.02362 0" fill-rule="nonzero"></path><path fill="#dd7e6b" d="m363.44226 156.73978l0 -17.002625l10.643555 0l2.6608887 8.501312l-2.6608887 8.501312z" fill-rule="nonzero"></path><path stroke="#434343" stroke-width="1.0" stroke-linejoin="round" stroke-linecap="butt" d="m363.44226 156.73978l0 -17.002625l10.643555 0l2.6608887 8.501312l-2.6608887 8.501312z" fill-rule="nonzero"></path><path fill="#000000" fill-opacity="0.0" d="m370.60962 110.44113l71.433075 0l0 30.803146l-71.433075 0z" fill-rule="nonzero"></path><path fill="#666666" d="m385.7815 129.68112q-0.25 -0.40625 -0.5625 -0.90625q-0.3125 -0.515625 -0.671875 -1.0624924q-0.359375 -0.546875 -0.75 -1.09375q-0.390625 -0.5625 -0.78125 -1.078125q-0.375 -0.53125 -0.75 -0.984375q-0.359375 -0.46875 -0.671875 -0.828125l0 5.9531174l-1.03125 0l0 -7.6249924l0.84375 0q0.515625 0.546875 1.09375 1.28125q0.59375 0.734375 1.171875 1.515625q0.578125 0.765625 1.09375 1.515625q0.515625 0.75 0.859375 1.328125l0 -5.640625l1.046875 0l0 7.6249924l-0.890625 0zm2.148468 -2.8437424q0 -0.765625 0.21875 -1.328125q0.21875 -0.5625 0.578125 -0.9375q0.375 -0.375 0.84375 -0.5625q0.46875 -0.1875 0.96875 -0.1875q1.15625 0 1.765625 0.71875q0.625 0.71875 0.625 2.1875q0 0.078125 0 0.1875q0 0.09375 -0.015625 0.1875l-3.921875 0q0.0625 0.890625 0.515625 1.3593674q0.453125 0.453125 1.40625 0.453125q0.546875 0 0.90625 -0.09375q0.375 -0.09375 0.5625 -0.1875l0.140625 0.859375q-0.1875 0.09375 -0.65625 0.203125q-0.46875 0.109375 -1.0625 0.109375q-0.75 0 -1.296875 -0.21875q-0.53125 -0.21875 -0.890625 -0.609375q-0.34375 -0.40625 -0.515625 -0.953125q-0.171875 -0.5468674 -0.171875 -1.1874924zm3.921875 -0.5625q0.015625 -0.703125 -0.34375 -1.140625q-0.359375 -0.453125 -0.984375 -0.453125q-0.34375 0 -0.625 0.140625q-0.265625 0.140625 -0.453125 0.359375q-0.1875 0.21875 -0.296875 0.515625q-0.09375 0.28125 -0.125 0.578125l2.828125 0zm3.3162842 -2.3125l2.15625 0l0 0.859375l-2.15625 0l0 2.640625q0 0.421875 0.0625 0.7031174q0.0625 0.28125 0.1875 0.453125q0.140625 0.15625 0.328125 0.21875q0.203125 0.0625 0.46875 0.0625q0.46875 0 0.75 -0.09375q0.28125 -0.109375 0.390625 -0.15625l0.1875 0.84375q-0.15625 0.078125 -0.546875 0.1875q-0.375 0.125 -0.859375 0.125q-0.59375 0 -0.96875 -0.140625q-0.375 -0.15625 -0.609375 -0.453125q-0.234375 -0.296875 -0.328125 -0.734375q-0.09375 -0.4375 -0.09375 -1.0156174l0 -5.09375l1.03125 -0.171875l0 1.765625zm8.002594 5.7187424q-0.3125 -0.796875 -0.671875 -1.8124924q-0.34375 -1.015625 -0.625 -2.109375q-0.28125 1.09375 -0.625 2.109375q-0.34375 1.0156174 -0.65625 1.8124924l-0.890625 0q-0.5 -1.140625 -0.984375 -2.5781174q-0.484375 -1.453125 -0.90625 -3.140625l1.09375 0q0.109375 0.515625 0.265625 1.125q0.15625 0.59375 0.328125 1.203125q0.171875 0.609375 0.359375 1.171875q0.1875 0.5624924 0.34375 0.9687424q0.1875 -0.5156174 0.359375 -1.0937424q0.1875 -0.578125 0.34375 -1.15625q0.171875 -0.59375 0.3125 -1.15625q0.15625 -0.5625 0.28125 -1.0625l0.84375 0q0.09375 0.5 0.234375 1.0625q0.140625 0.5625 0.296875 1.15625q0.171875 0.578125 0.359375 1.15625q0.1875 0.578125 0.375 1.0937424q0.15625 -0.40625 0.328125 -0.9687424q0.1875 -0.5625 0.359375 -1.171875q0.1875 -0.609375 0.34375 -1.203125q0.15625 -0.609375 0.265625 -1.125l1.046875 0q-0.421875 1.6875 -0.90625 3.140625q-0.484375 1.4374924 -0.984375 2.5781174l-0.890625 0zm8.639374 -2.8593674q0 0.6875 -0.203125 1.2343674q-0.1875 0.546875 -0.546875 0.953125q-0.359375 0.390625 -0.859375 0.609375q-0.484375 0.203125 -1.0625 0.203125q-0.59375 0 -1.09375 -0.203125q-0.484375 -0.21875 -0.84375 -0.609375q-0.359375 -0.40625 -0.5625 -0.953125q-0.1875 -0.5468674 -0.1875 -1.2343674q0 -0.671875 0.1875 -1.21875q0.203125 -0.5625 0.5625 -0.953125q0.359375 -0.40625 0.84375 -0.609375q0.5 -0.21875 1.09375 -0.21875q0.578125 0 1.0625 0.21875q0.5 0.203125 0.859375 0.609375q0.359375 0.390625 0.546875 0.953125q0.203125 0.546875 0.203125 1.21875zm-1.0625 0q0 -0.96875 -0.4375 -1.53125q-0.421875 -0.578125 -1.171875 -0.578125q-0.75 0 -1.1875 0.578125q-0.4375 0.5625 -0.4375 1.53125q0 0.96875 0.4375 1.5312424q0.4375 0.5625 1.1875 0.5625q0.75 0 1.171875 -0.5625q0.4375 -0.5624924 0.4375 -1.5312424zm4.4122314 -2.984375q0.140625 0 0.3125 0.015625q0.171875 0.015625 0.328125 0.046875q0.171875 0.03125 0.296875 0.0625q0.140625 0.015625 0.21875 0.046875l-0.1875 0.890625q-0.109375 -0.046875 -0.390625 -0.109375q-0.28125 -0.0625 -0.71875 -0.0625q-0.296875 0 -0.578125 0.0625q-0.28125 0.0625 -0.359375 0.078125l0 4.8124924l-1.03125 0l0 -5.4843674q0.375 -0.125 0.90625 -0.234375q0.546875 -0.125 1.203125 -0.125zm4.082123 2.703125q0.328125 0.25 0.6875 0.625q0.375 0.375 0.734375 0.8125q0.359375 0.42186737 0.671875 0.8749924q0.328125 0.4375 0.546875 0.828125l-1.203125 0q-0.234375 -0.390625 -0.546875 -0.78125q-0.296875 -0.40625 -0.625 -0.765625q-0.328125 -0.37499237 -0.671875 -0.6874924q-0.328125 -0.3125 -0.640625 -0.515625l0 2.7499924l-1.03125 0l0 -8.359367l1.03125 -0.171875l0 5.203125q0.265625 -0.265625 0.578125 -0.578125q0.328125 -0.3125 0.625 -0.640625q0.3125 -0.34375 0.578125 -0.640625q0.28125 -0.296875 0.484375 -0.53125l1.203125 0q-0.265625 0.28125 -0.5625 0.609375q-0.296875 0.328125 -0.609375 0.671875q-0.3125 0.328125 -0.640625 0.671875q-0.328125 0.328125 -0.609375 0.625z" fill-rule="nonzero"></path><path fill="#666666" d="m385.64087 142.68112q-0.171875 -0.5 -0.34375 -0.96875q-0.171875 -0.484375 -0.34375 -0.984375l-3.453125 0l-0.6875 1.953125l-1.109375 0q0.4375 -1.203125 0.8125 -2.234375q0.390625 -1.03125 0.75 -1.953125q0.375 -0.921875 0.734375 -1.765625q0.375 -0.84375 0.765625 -1.671875l0.984375 0q0.390625 0.828125 0.75 1.671875q0.375 0.84375 0.734375 1.765625q0.375 0.921875 0.75 1.953125q0.390625 1.03125 0.828125 2.234375l-1.171875 0zm-1.0 -2.828125q-0.34375 -0.953125 -0.6875 -1.84375q-0.34375 -0.90625 -0.71875 -1.734375q-0.390625 0.828125 -0.734375 1.734375q-0.34375 0.890625 -0.6875 1.84375l2.828125 0zm6.2526855 3.0q-0.796875 0 -1.46875 -0.265625q-0.65625 -0.265625 -1.125 -0.765625q-0.46875 -0.515625 -0.734375 -1.25q-0.25 -0.75 -0.25 -1.703125q0 -0.96875 0.28125 -1.703125q0.296875 -0.75 0.796875 -1.25q0.5 -0.5 1.15625 -0.765625q0.65625 -0.265625 1.40625 -0.265625q0.46875 0 0.84375 0.0625q0.390625 0.0625 0.671875 0.15625q0.28125 0.09375 0.453125 0.1875q0.171875 0.078125 0.234375 0.125l-0.296875 0.875q-0.109375 -0.0625 -0.296875 -0.140625q-0.1875 -0.078125 -0.421875 -0.15625q-0.234375 -0.078125 -0.515625 -0.125q-0.28125 -0.046875 -0.5625 -0.046875q-0.609375 0 -1.09375 0.203125q-0.484375 0.203125 -0.828125 0.609375q-0.328125 0.390625 -0.515625 0.96875q-0.1875 0.5625 -0.1875 1.265625q0 0.671875 0.15625 1.234375q0.171875 0.5625 0.484375 0.96875q0.328125 0.40625 0.796875 0.625q0.484375 0.21875 1.125 0.21875q0.734375 0 1.21875 -0.15625q0.484375 -0.15625 0.71875 -0.28125l0.28125 0.890625q-0.078125 0.046875 -0.28125 0.140625q-0.1875 0.078125 -0.484375 0.15625q-0.296875 0.078125 -0.703125 0.125q-0.390625 0.0625 -0.859375 0.0625zm7.9194336 -1.09375l0 0.921875l-4.578125 0l0 -7.625l1.0625 0l0 6.703125l3.515625 0z" fill-rule="nonzero"></path><path fill="#000000" fill-opacity="0.0" d="m376.7467 148.23846l38.834656 0l0 170.26773" fill-rule="nonzero"></path><path stroke="#666666" stroke-width="1.0" stroke-linejoin="round" stroke-linecap="butt" d="m376.7467 148.23846l38.834656 0l0 170.26773" fill-rule="nonzero"></path><path fill="#f4cccc" d="m362.09653 290.47375l6.5071106 -8.501312l19.52124 0l6.50708 8.501312l-6.50708 8.501312l-19.52124 0z" fill-rule="nonzero"></path><path stroke="#434343" stroke-width="1.0" stroke-linejoin="round" stroke-linecap="butt" d="m362.09653 290.47375l6.5071106 -8.501312l19.52124 0l6.50708 8.501312l-6.50708 8.501312l-19.52124 0z" fill-rule="nonzero"></path><path fill="#000000" fill-opacity="0.0" d="m394.34872 295.8684l17.73227 19.212585" fill-rule="nonzero"></path><path stroke="#000000" stroke-width="1.0" stroke-linejoin="round" stroke-linecap="butt" stroke-dasharray="4.0,3.0" d="m394.34872 295.8684l17.73227 19.212585" fill-rule="nonzero"></path><path fill="#d5a6bd" d="m404.3519 328.95013l0 0c0 -6.122986 5.1328735 -11.086609 11.464569 -11.086609l0 0c3.0405884 0 5.956665 1.1680298 8.106689 3.2471924c2.1500244 2.079132 3.3578796 4.899048 3.3578796 7.8394165l0 0c0 6.1229553 -5.132843 11.086609 -11.464569 11.086609l0 0c-6.3316956 0 -11.464569 -4.9636536 -11.464569 -11.086609z" fill-rule="nonzero"></path><path stroke="#666666" stroke-width="1.0" stroke-linejoin="round" stroke-linecap="butt" d="m404.3519 328.95013l0 0c0 -6.122986 5.1328735 -11.086609 11.464569 -11.086609l0 0c3.0405884 0 5.956665 1.1680298 8.106689 3.2471924c2.1500244 2.079132 3.3578796 4.899048 3.3578796 7.8394165l0 0c0 6.1229553 -5.132843 11.086609 -11.464569 11.086609l0 0c-6.3316956 0 -11.464569 -4.9636536 -11.464569 -11.086609z" fill-rule="nonzero"></path><path fill="#000000" fill-opacity="0.0" d="m319.0451 267.35303l50.26773 0l0 30.803131l-50.26773 0z" fill-rule="nonzero"></path><path fill="#666666" d="m332.71698 283.40552q0.171875 0.21875 0.4375 0.578125q0.28125 0.359375 0.5625 0.796875q0.296875 0.421875 0.5625 0.90625q0.28125 0.46875 0.484375 0.90625l-1.15625 0q-0.234375 -0.421875 -0.5 -0.84375q-0.25 -0.4375 -0.515625 -0.828125q-0.25 -0.390625 -0.515625 -0.71875q-0.265625 -0.34375 -0.46875 -0.59375q-0.140625 0 -0.296875 0q-0.140625 0 -0.296875 0l-0.953125 0l0 2.984375l-1.0625 0l0 -7.515625q0.4375 -0.109375 1.0 -0.140625q0.5625 -0.046875 1.015625 -0.046875q1.609375 0 2.453125 0.609375q0.84375 0.609375 0.84375 1.796875q0 0.765625 -0.40625 1.3125q-0.40625 0.53125 -1.1875 0.796875zm-1.609375 -3.578125q-0.6875 0 -1.046875 0.03125l0 2.875l0.75 0q0.5625 0 1.0 -0.046875q0.4375 -0.0625 0.734375 -0.21875q0.3125 -0.15625 0.46875 -0.4375q0.171875 -0.28125 0.171875 -0.734375q0 -0.4375 -0.171875 -0.71875q-0.15625 -0.28125 -0.4375 -0.453125q-0.28125 -0.171875 -0.671875 -0.234375q-0.375 -0.0625 -0.796875 -0.0625zm9.562225 3.90625q0 0.6875 -0.203125 1.234375q-0.1875 0.546875 -0.546875 0.953125q-0.359375 0.390625 -0.859375 0.609375q-0.484375 0.203125 -1.0625 0.203125q-0.59375 0 -1.09375 -0.203125q-0.484375 -0.21875 -0.84375 -0.609375q-0.359375 -0.40625 -0.5625 -0.953125q-0.1875 -0.546875 -0.1875 -1.234375q0 -0.671875 0.1875 -1.21875q0.203125 -0.5625 0.5625 -0.953125q0.359375 -0.40625 0.84375 -0.609375q0.5 -0.21875 1.09375 -0.21875q0.578125 0 1.0625 0.21875q0.5 0.203125 0.859375 0.609375q0.359375 0.390625 0.546875 0.953125q0.203125 0.546875 0.203125 1.21875zm-1.0625 0q0 -0.96875 -0.4375 -1.53125q-0.421875 -0.578125 -1.171875 -0.578125q-0.75 0 -1.1875 0.578125q-0.4375 0.5625 -0.4375 1.53125q0 0.96875 0.4375 1.53125q0.4375 0.5625 1.1875 0.5625q0.75 0 1.171875 -0.5625q0.4375 -0.5625 0.4375 -1.53125zm6.865387 2.6875q-0.359375 0.09375 -0.9375 0.1875q-0.578125 0.109375 -1.328125 0.109375q-0.65625 0 -1.109375 -0.1875q-0.453125 -0.203125 -0.734375 -0.546875q-0.265625 -0.359375 -0.390625 -0.828125q-0.125 -0.484375 -0.125 -1.078125l0 -3.203125l1.03125 0l0 2.984375q0 1.046875 0.328125 1.5q0.328125 0.453125 1.109375 0.453125q0.15625 0 0.328125 0q0.1875 -0.015625 0.34375 -0.03125q0.15625 -0.03125 0.28125 -0.046875q0.125 -0.015625 0.171875 -0.03125l0 -4.828125l1.03125 0l0 5.546875zm2.5229797 -5.546875l2.15625 0l0 0.859375l-2.15625 0l0 2.640625q0 0.421875 0.0625 0.703125q0.0625 0.28125 0.1875 0.453125q0.140625 0.15625 0.328125 0.21875q0.203125 0.0625 0.46875 0.0625q0.46875 0 0.75 -0.09375q0.28125 -0.109375 0.390625 -0.15625l0.1875 0.84375q-0.15625 0.078125 -0.546875 0.1875q-0.375 0.125 -0.859375 0.125q-0.59375 0 -0.96875 -0.140625q-0.375 -0.15625 -0.609375 -0.453125q-0.234375 -0.296875 -0.328125 -0.734375q-0.09375 -0.4375 -0.09375 -1.015625l0 -5.09375l1.03125 -0.171875l0 1.765625zm3.0026245 2.875q0 -0.765625 0.21875 -1.328125q0.21875 -0.5625 0.578125 -0.9375q0.375 -0.375 0.84375 -0.5625q0.46875 -0.1875 0.96875 -0.1875q1.15625 0 1.765625 0.71875q0.625 0.71875 0.625 2.1875q0 0.078125 0 0.1875q0 0.09375 -0.015625 0.1875l-3.921875 0q0.0625 0.890625 0.515625 1.359375q0.453125 0.453125 1.40625 0.453125q0.546875 0 0.90625 -0.09375q0.375 -0.09375 0.5625 -0.1875l0.140625 0.859375q-0.1875 0.09375 -0.65625 0.203125q-0.46875 0.109375 -1.0625 0.109375q-0.75 0 -1.296875 -0.21875q-0.53125 -0.21875 -0.890625 -0.609375q-0.34375 -0.40625 -0.515625 -0.953125q-0.171875 -0.546875 -0.171875 -1.1875zm3.921875 -0.5625q0.015625 -0.703125 -0.34375 -1.140625q-0.359375 -0.453125 -0.984375 -0.453125q-0.34375 0 -0.625 0.140625q-0.265625 0.140625 -0.453125 0.359375q-0.1875 0.21875 -0.296875 0.515625q-0.09375 0.28125 -0.125 0.578125l2.828125 0z" fill-rule="nonzero"></path><path fill="#666666" d="m334.07635 291.96802l0 0.921875l-2.390625 0l0 6.703125l-1.0625 0l0 -6.703125l-2.40625 0l0 -0.921875l5.859375 0zm2.8020935 6.890625q0.359375 0 0.640625 -0.015625q0.28125 -0.015625 0.46875 -0.0625l0 -1.703125q-0.109375 -0.0625 -0.359375 -0.09375q-0.234375 -0.046875 -0.59375 -0.046875q-0.234375 0 -0.5 0.046875q-0.25 0.03125 -0.46875 0.140625q-0.203125 0.09375 -0.359375 0.28125q-0.140625 0.171875 -0.140625 0.46875q0 0.546875 0.359375 0.765625q0.359375 0.21875 0.953125 0.21875zm-0.078125 -5.125q0.609375 0 1.03125 0.15625q0.421875 0.15625 0.671875 0.453125q0.265625 0.28125 0.375 0.6875q0.109375 0.40625 0.109375 0.890625l0 3.578125q-0.125 0.015625 -0.359375 0.0625q-0.234375 0.03125 -0.53125 0.0625q-0.296875 0.03125 -0.65625 0.0625q-0.34375 0.03125 -0.6875 0.03125q-0.46875 0 -0.890625 -0.109375q-0.40625 -0.09375 -0.703125 -0.296875q-0.296875 -0.21875 -0.46875 -0.5625q-0.15625 -0.359375 -0.15625 -0.859375q0 -0.46875 0.1875 -0.8125q0.203125 -0.34375 0.53125 -0.546875q0.328125 -0.21875 0.765625 -0.3125q0.4375 -0.09375 0.921875 -0.09375q0.15625 0 0.3125 0.015625q0.171875 0.015625 0.3125 0.046875q0.15625 0.015625 0.265625 0.046875q0.125 0.015625 0.15625 0.03125l0 -0.296875q0 -0.25 -0.0625 -0.484375q-0.046875 -0.25 -0.1875 -0.4375q-0.140625 -0.203125 -0.390625 -0.3125q-0.25 -0.125 -0.640625 -0.125q-0.5 0 -0.890625 0.078125q-0.375 0.0625 -0.5625 0.140625l-0.125 -0.84375q0.203125 -0.09375 0.65625 -0.171875q0.46875 -0.078125 1.015625 -0.078125zm4.734497 0.390625q0.1875 -0.125 0.5625 -0.25q0.375 -0.140625 0.875 -0.140625q0.609375 0 1.09375 0.234375q0.484375 0.21875 0.8125 0.609375q0.328125 0.390625 0.5 0.953125q0.171875 0.546875 0.171875 1.203125q0 0.6875 -0.203125 1.25q-0.203125 0.546875 -0.578125 0.9375q-0.375 0.390625 -0.90625 0.59375q-0.53125 0.203125 -1.1875 0.203125q-0.71875 0 -1.265625 -0.09375q-0.546875 -0.09375 -0.90625 -0.203125l0 -8.1875l1.03125 -0.171875l0 3.0625zm0 4.578125q0.15625 0.046875 0.4375 0.09375q0.28125 0.03125 0.6875 0.03125q0.828125 0 1.3125 -0.546875q0.5 -0.546875 0.5 -1.546875q0 -0.4375 -0.09375 -0.8125q-0.078125 -0.390625 -0.28125 -0.671875q-0.1875 -0.28125 -0.5 -0.4375q-0.3125 -0.171875 -0.75 -0.171875q-0.421875 0 -0.78125 0.15625q-0.34375 0.140625 -0.53125 0.28125l0 3.625zm6.9641113 1.0q-0.9375 -0.015625 -1.34375 -0.40625q-0.390625 -0.390625 -0.390625 -1.203125l0 -6.859375l1.015625 -0.171875l0 6.875q0 0.25 0.046875 0.421875q0.046875 0.15625 0.140625 0.265625q0.109375 0.09375 0.265625 0.140625q0.171875 0.046875 0.40625 0.078125l-0.140625 0.859375zm0.8779297 -2.953125q0 -0.765625 0.21875 -1.328125q0.21875 -0.5625 0.578125 -0.9375q0.375 -0.375 0.84375 -0.5625q0.46875 -0.1875 0.96875 -0.1875q1.15625 0 1.765625 0.71875q0.625 0.71875 0.625 2.1875q0 0.078125 0 0.1875q0 0.09375 -0.015625 0.1875l-3.921875 0q0.0625 0.890625 0.515625 1.359375q0.453125 0.453125 1.40625 0.453125q0.546875 0 0.90625 -0.09375q0.375 -0.09375 0.5625 -0.1875l0.140625 0.859375q-0.1875 0.09375 -0.65625 0.203125q-0.46875 0.109375 -1.0625 0.109375q-0.75 0 -1.296875 -0.21875q-0.53125 -0.21875 -0.890625 -0.609375q-0.34375 -0.40625 -0.515625 -0.953125q-0.171875 -0.546875 -0.171875 -1.1875zm3.921875 -0.5625q0.015625 -0.703125 -0.34375 -1.140625q-0.359375 -0.453125 -0.984375 -0.453125q-0.34375 0 -0.625 0.140625q-0.265625 0.140625 -0.453125 0.359375q-0.1875 0.21875 -0.296875 0.515625q-0.09375 0.28125 -0.125 0.578125l2.828125 0z" fill-rule="nonzero"></path><path fill="#000000" fill-opacity="0.0" d="m360.44897 328.59842l55.118103 0l0 30.803162l-55.118103 0z" fill-rule="nonzero"></path><path fill="#666666" d="m374.12085 344.65094q0.171875 0.21875 0.4375 0.578125q0.28125 0.359375 0.5625 0.796875q0.296875 0.421875 0.5625 0.90625q0.28125 0.46875 0.484375 0.90625l-1.15625 0q-0.234375 -0.421875 -0.5 -0.84375q-0.25 -0.4375 -0.515625 -0.828125q-0.25 -0.390625 -0.515625 -0.71875q-0.265625 -0.34375 -0.46875 -0.59375q-0.140625 0 -0.296875 0q-0.140625 0 -0.296875 0l-0.953125 0l0 2.984375l-1.0625 0l0 -7.515625q0.4375 -0.109375 1.0 -0.140625q0.5625 -0.046875 1.015625 -0.046875q1.609375 0 2.453125 0.609375q0.84375 0.609375 0.84375 1.796875q0 0.765625 -0.40625 1.3125q-0.40625 0.53125 -1.1875 0.796875zm-1.609375 -3.578125q-0.6875 0 -1.046875 0.03125l0 2.875l0.75 0q0.5625 0 1.0 -0.046875q0.4375 -0.0625 0.734375 -0.21875q0.3125 -0.15625 0.46875 -0.4375q0.171875 -0.28125 0.171875 -0.734375q0 -0.4375 -0.171875 -0.71875q-0.15625 -0.28125 -0.4375 -0.453125q-0.28125 -0.171875 -0.671875 -0.234375q-0.375 -0.0625 -0.796875 -0.0625zm9.562225 3.90625q0 0.6875 -0.203125 1.234375q-0.1875 0.546875 -0.546875 0.953125q-0.359375 0.390625 -0.859375 0.609375q-0.484375 0.203125 -1.0625 0.203125q-0.59375 0 -1.09375 -0.203125q-0.484375 -0.21875 -0.84375 -0.609375q-0.359375 -0.40625 -0.5625 -0.953125q-0.1875 -0.546875 -0.1875 -1.234375q0 -0.671875 0.1875 -1.21875q0.203125 -0.5625 0.5625 -0.953125q0.359375 -0.40625 0.84375 -0.609375q0.5 -0.21875 1.09375 -0.21875q0.578125 0 1.0625 0.21875q0.5 0.203125 0.859375 0.609375q0.359375 0.390625 0.546875 0.953125q0.203125 0.546875 0.203125 1.21875zm-1.0625 0q0 -0.96875 -0.4375 -1.53125q-0.421875 -0.578125 -1.171875 -0.578125q-0.75 0 -1.1875 0.578125q-0.4375 0.5625 -0.4375 1.53125q0 0.96875 0.4375 1.53125q0.4375 0.5625 1.1875 0.5625q0.75 0 1.171875 -0.5625q0.4375 -0.5625 0.4375 -1.53125zm6.865387 2.6875q-0.359375 0.09375 -0.9375 0.1875q-0.578125 0.109375 -1.328125 0.109375q-0.65625 0 -1.109375 -0.1875q-0.453125 -0.203125 -0.734375 -0.546875q-0.265625 -0.359375 -0.390625 -0.828125q-0.125 -0.484375 -0.125 -1.078125l0 -3.203125l1.03125 0l0 2.984375q0 1.046875 0.328125 1.5q0.328125 0.453125 1.109375 0.453125q0.15625 0 0.328125 0q0.1875 -0.015625 0.34375 -0.03125q0.15625 -0.03125 0.28125 -0.046875q0.125 -0.015625 0.171875 -0.03125l0 -4.828125l1.03125 0l0 5.546875zm2.5229797 -5.546875l2.15625 0l0 0.859375l-2.15625 0l0 2.640625q0 0.421875 0.0625 0.703125q0.0625 0.28125 0.1875 0.453125q0.140625 0.15625 0.328125 0.21875q0.203125 0.0625 0.46875 0.0625q0.46875 0 0.75 -0.09375q0.28125 -0.109375 0.390625 -0.15625l0.1875 0.84375q-0.15625 0.078125 -0.546875 0.1875q-0.375 0.125 -0.859375 0.125q-0.59375 0 -0.96875 -0.140625q-0.375 -0.15625 -0.609375 -0.453125q-0.234375 -0.296875 -0.328125 -0.734375q-0.09375 -0.4375 -0.09375 -1.015625l0 -5.09375l1.03125 -0.171875l0 1.765625zm3.0026245 2.875q0 -0.765625 0.21875 -1.328125q0.21875 -0.5625 0.578125 -0.9375q0.375 -0.375 0.84375 -0.5625q0.46875 -0.1875 0.96875 -0.1875q1.15625 0 1.765625 0.71875q0.625 0.71875 0.625 2.1875q0 0.078125 0 0.1875q0 0.09375 -0.015625 0.1875l-3.921875 0q0.0625 0.890625 0.515625 1.359375q0.453125 0.453125 1.40625 0.453125q0.546875 0 0.90625 -0.09375q0.375 -0.09375 0.5625 -0.1875l0.140625 0.859375q-0.1875 0.09375 -0.65625 0.203125q-0.46875 0.109375 -1.0625 0.109375q-0.75 0 -1.296875 -0.21875q-0.53125 -0.21875 -0.890625 -0.609375q-0.34375 -0.40625 -0.515625 -0.953125q-0.171875 -0.546875 -0.171875 -1.1875zm3.921875 -0.5625q0.015625 -0.703125 -0.34375 -1.140625q-0.359375 -0.453125 -0.984375 -0.453125q-0.34375 0 -0.625 0.140625q-0.265625 0.140625 -0.453125 0.359375q-0.1875 0.21875 -0.296875 0.515625q-0.09375 0.28125 -0.125 0.578125l2.828125 0zm4.456909 -2.4375q0.140625 0 0.3125 0.015625q0.171875 0.015625 0.328125 0.046875q0.171875 0.03125 0.296875 0.0625q0.140625 0.015625 0.21875 0.046875l-0.1875 0.890625q-0.109375 -0.046875 -0.390625 -0.109375q-0.28125 -0.0625 -0.71875 -0.0625q-0.296875 0 -0.578125 0.0625q-0.28125 0.0625 -0.359375 0.078125l0 4.8125l-1.03125 0l0 -5.484375q0.375 -0.125 0.90625 -0.234375q0.546875 -0.125 1.203125 -0.125z" fill-rule="nonzero"></path><path fill="#000000" fill-opacity="0.0" d="m426.5266 328.21185l125.66931 -0.25198364" fill-rule="nonzero"></path><path stroke="#666666" stroke-width="1.0" stroke-linejoin="round" stroke-linecap="butt" d="m426.5266 328.21185l125.66931 -0.25198364" fill-rule="nonzero"></path><path fill="#b6d7a8" d="m552.1959 327.95987l16.2677 -15.401581l16.2677 15.401581l-16.2677 15.401581z" fill-rule="nonzero"></path><path stroke="#666666" stroke-width="1.0" stroke-linejoin="round" stroke-linecap="butt" d="m552.1959 327.95987l16.2677 -15.401581l16.2677 15.401581l-16.2677 15.401581z" fill-rule="nonzero"></path><path fill="#000000" fill-opacity="0.0" d="m500.9283 286.38077l81.165375 0l0 30.803131l-81.165375 0z" fill-rule="nonzero"></path><path fill="#666666" d="m510.88144 297.99576l1.0625 0l0 7.625l-1.0625 0l0 -7.625zm2.7884216 2.0625q0.359375 -0.078125 0.9375 -0.171875q0.578125 -0.109375 1.34375 -0.109375q0.6875 0 1.125 0.203125q0.453125 0.1875 0.71875 0.53125q0.28125 0.34375 0.390625 0.828125q0.109375 0.484375 0.109375 1.0625l0 3.21875l-1.015625 0l0 -2.984375q0 -0.53125 -0.078125 -0.90625q-0.078125 -0.375 -0.25 -0.609375q-0.15625 -0.234375 -0.4375 -0.328125q-0.265625 -0.109375 -0.671875 -0.109375q-0.171875 0 -0.34375 0.015625q-0.171875 0 -0.328125 0.015625q-0.15625 0.015625 -0.296875 0.046875q-0.125 0.015625 -0.171875 0.03125l0 4.828125l-1.03125 0l0 -5.5625zm7.0855103 -0.15625l2.15625 0l0 0.859375l-2.15625 0l0 2.640625q0 0.421875 0.0625 0.703125q0.0625 0.28125 0.1875 0.453125q0.140625 0.15625 0.328125 0.21875q0.203125 0.0625 0.46875 0.0625q0.46875 0 0.75 -0.09375q0.28125 -0.109375 0.390625 -0.15625l0.1875 0.84375q-0.15625 0.078125 -0.546875 0.1875q-0.375 0.125 -0.859375 0.125q-0.59375 0 -0.96875 -0.140625q-0.375 -0.15625 -0.609375 -0.453125q-0.234375 -0.296875 -0.328125 -0.734375q-0.09375 -0.4375 -0.09375 -1.015625l0 -5.09375l1.03125 -0.171875l0 1.765625zm3.0026245 2.875q0 -0.765625 0.21875 -1.328125q0.21875 -0.5625 0.578125 -0.9375q0.375 -0.375 0.84375 -0.5625q0.46875 -0.1875 0.96875 -0.1875q1.15625 0 1.765625 0.71875q0.625 0.71875 0.625 2.1875q0 0.078125 0 0.1875q0 0.09375 -0.015625 0.1875l-3.921875 0q0.0625 0.890625 0.515625 1.359375q0.453125 0.453125 1.40625 0.453125q0.546875 0 0.90625 -0.09375q0.375 -0.09375 0.5625 -0.1875l0.140625 0.859375q-0.1875 0.09375 -0.65625 0.203125q-0.46875 0.109375 -1.0625 0.109375q-0.75 0 -1.296875 -0.21875q-0.53125 -0.21875 -0.890625 -0.609375q-0.34375 -0.40625 -0.515625 -0.953125q-0.171875 -0.546875 -0.171875 -1.1875zm3.921875 -0.5625q0.015625 -0.703125 -0.34375 -1.140625q-0.359375 -0.453125 -0.984375 -0.453125q-0.34375 0 -0.625 0.140625q-0.265625 0.140625 -0.453125 0.359375q-0.1875 0.21875 -0.296875 0.515625q-0.09375 0.28125 -0.125 0.578125l2.828125 0zm4.456909 -2.4375q0.140625 0 0.3125 0.015625q0.171875 0.015625 0.328125 0.046875q0.171875 0.03125 0.296875 0.0625q0.140625 0.015625 0.21875 0.046875l-0.1875 0.890625q-0.109375 -0.046875 -0.390625 -0.109375q-0.28125 -0.0625 -0.71875 -0.0625q-0.296875 0 -0.578125 0.0625q-0.28125 0.0625 -0.359375 0.078125l0 4.8125l-1.03125 0l0 -5.484375q0.375 -0.125 0.90625 -0.234375q0.546875 -0.125 1.203125 -0.125zm2.0039673 0.28125q0.359375 -0.078125 0.9375 -0.171875q0.578125 -0.109375 1.34375 -0.109375q0.6875 0 1.125 0.203125q0.453125 0.1875 0.71875 0.53125q0.28125 0.34375 0.390625 0.828125q0.109375 0.484375 0.109375 1.0625l0 3.21875l-1.015625 0l0 -2.984375q0 -0.53125 -0.078125 -0.90625q-0.078125 -0.375 -0.25 -0.609375q-0.15625 -0.234375 -0.4375 -0.328125q-0.265625 -0.109375 -0.671875 -0.109375q-0.171875 0 -0.34375 0.015625q-0.171875 0 -0.328125 0.015625q-0.15625 0.015625 -0.296875 0.046875q-0.125 0.015625 -0.171875 0.03125l0 4.828125l-1.03125 0l0 -5.5625zm5.8042603 2.71875q0 -0.765625 0.21875 -1.328125q0.21875 -0.5625 0.578125 -0.9375q0.375 -0.375 0.84375 -0.5625q0.46875 -0.1875 0.96875 -0.1875q1.15625 0 1.765625 0.71875q0.625 0.71875 0.625 2.1875q0 0.078125 0 0.1875q0 0.09375 -0.015625 0.1875l-3.921875 0q0.0625 0.890625 0.515625 1.359375q0.453125 0.453125 1.40625 0.453125q0.546875 0 0.90625 -0.09375q0.375 -0.09375 0.5625 -0.1875l0.140625 0.859375q-0.1875 0.09375 -0.65625 0.203125q-0.46875 0.109375 -1.0625 0.109375q-0.75 0 -1.296875 -0.21875q-0.53125 -0.21875 -0.890625 -0.609375q-0.34375 -0.40625 -0.515625 -0.953125q-0.171875 -0.546875 -0.171875 -1.1875zm3.921875 -0.5625q0.015625 -0.703125 -0.34375 -1.140625q-0.359375 -0.453125 -0.984375 -0.453125q-0.34375 0 -0.625 0.140625q-0.265625 0.140625 -0.453125 0.359375q-0.1875 0.21875 -0.296875 0.515625q-0.09375 0.28125 -0.125 0.578125l2.828125 0zm3.3162842 -2.3125l2.15625 0l0 0.859375l-2.15625 0l0 2.640625q0 0.421875 0.0625 0.703125q0.0625 0.28125 0.1875 0.453125q0.140625 0.15625 0.328125 0.21875q0.203125 0.0625 0.46875 0.0625q0.46875 0 0.75 -0.09375q0.28125 -0.109375 0.390625 -0.15625l0.1875 0.84375q-0.15625 0.078125 -0.546875 0.1875q-0.375 0.125 -0.859375 0.125q-0.59375 0 -0.96875 -0.140625q-0.375 -0.15625 -0.609375 -0.453125q-0.234375 -0.296875 -0.328125 -0.734375q-0.09375 -0.4375 -0.09375 -1.015625l0 -5.09375l1.03125 -0.171875l0 1.765625z" fill-rule="nonzero"></path><path fill="#666666" d="m515.52203 314.87076l1.078125 0l0 3.5625q-0.140625 0.046875 -0.390625 0.109375q-0.25 0.046875 -0.578125 0.09375q-0.3125 0.0625 -0.703125 0.09375q-0.375 0.046875 -0.78125 0.046875q-0.796875 0 -1.46875 -0.265625q-0.65625 -0.265625 -1.1249695 -0.765625q-0.46875 -0.515625 -0.734375 -1.25q-0.25 -0.734375 -0.25 -1.6875q0 -0.96875 0.28125 -1.703125q0.296875 -0.75 0.796875 -1.25q0.49996948 -0.5 1.1562195 -0.765625q0.671875 -0.265625 1.421875 -0.265625q0.515625 0 0.921875 0.0625q0.40625 0.0625 0.6875 0.15625q0.28125 0.09375 0.46875 0.1875q0.1875 0.078125 0.25 0.125l-0.34375 0.890625q-0.3125 -0.21875 -0.84375 -0.34375q-0.53125 -0.140625 -1.078125 -0.140625q-0.59375 0 -1.078125 0.203125q-0.46875 0.203125 -0.8125 0.609375q-0.328125 0.390625 -0.5155945 0.96875q-0.1875 0.5625 -0.1875 1.265625q0 0.671875 0.15625 1.234375q0.17184448 0.5625 0.48434448 0.96875q0.328125 0.40625 0.8125 0.625q0.484375 0.21875 1.125 0.21875q0.46875 0 0.78125 -0.046875q0.328125 -0.0625 0.46875 -0.09375l0 -2.84375zm4.379822 3.015625q0.359375 0 0.640625 -0.015625q0.28125 -0.015625 0.46875 -0.0625l0 -1.703125q-0.109375 -0.0625 -0.359375 -0.09375q-0.234375 -0.046875 -0.59375 -0.046875q-0.234375 0 -0.5 0.046875q-0.25 0.03125 -0.46875 0.140625q-0.203125 0.09375 -0.359375 0.28125q-0.140625 0.171875 -0.140625 0.46875q0 0.546875 0.359375 0.765625q0.359375 0.21875 0.953125 0.21875zm-0.078125 -5.125q0.609375 0 1.03125 0.15625q0.421875 0.15625 0.671875 0.453125q0.265625 0.28125 0.375 0.6875q0.109375 0.40625 0.109375 0.890625l0 3.578125q-0.125 0.015625 -0.359375 0.0625q-0.234375 0.03125 -0.53125 0.0625q-0.296875 0.03125 -0.65625 0.0625q-0.34375 0.03125 -0.6875 0.03125q-0.46875 0 -0.890625 -0.109375q-0.40625 -0.09375 -0.703125 -0.296875q-0.296875 -0.21875 -0.46875 -0.5625q-0.15625 -0.359375 -0.15625 -0.859375q0 -0.46875 0.1875 -0.8125q0.203125 -0.34375 0.53125 -0.546875q0.328125 -0.21875 0.765625 -0.3125q0.4375 -0.09375 0.921875 -0.09375q0.15625 0 0.3125 0.015625q0.171875 0.015625 0.3125 0.046875q0.15625 0.015625 0.265625 0.046875q0.125 0.015625 0.15625 0.03125l0 -0.296875q0 -0.25 -0.0625 -0.484375q-0.046875 -0.25 -0.1875 -0.4375q-0.140625 -0.203125 -0.390625 -0.3125q-0.25 -0.125 -0.640625 -0.125q-0.5 0 -0.890625 0.078125q-0.375 0.0625 -0.5625 0.140625l-0.125 -0.84375q0.203125 -0.09375 0.65625 -0.171875q0.46875 -0.078125 1.015625 -0.078125zm4.671997 0.140625l2.15625 0l0 0.859375l-2.15625 0l0 2.640625q0 0.421875 0.0625 0.703125q0.0625 0.28125 0.1875 0.453125q0.140625 0.15625 0.328125 0.21875q0.203125 0.0625 0.46875 0.0625q0.46875 0 0.75 -0.09375q0.28125 -0.109375 0.390625 -0.15625l0.1875 0.84375q-0.15625 0.078125 -0.546875 0.1875q-0.375 0.125 -0.859375 0.125q-0.59375 0 -0.96875 -0.140625q-0.375 -0.15625 -0.609375 -0.453125q-0.234375 -0.296875 -0.328125 -0.734375q-0.09375 -0.4375 -0.09375 -1.015625l0 -5.09375l1.03125 -0.171875l0 1.765625zm3.0026245 2.875q0 -0.765625 0.21875 -1.328125q0.21875 -0.5625 0.578125 -0.9375q0.375 -0.375 0.84375 -0.5625q0.46875 -0.1875 0.96875 -0.1875q1.15625 0 1.765625 0.71875q0.625 0.71875 0.625 2.1875q0 0.078125 0 0.1875q0 0.09375 -0.015625 0.1875l-3.921875 0q0.0625 0.890625 0.515625 1.359375q0.453125 0.453125 1.40625 0.453125q0.546875 0 0.90625 -0.09375q0.375 -0.09375 0.5625 -0.1875l0.140625 0.859375q-0.1875 0.09375 -0.65625 0.203125q-0.46875 0.109375 -1.0625 0.109375q-0.75 0 -1.296875 -0.21875q-0.53125 -0.21875 -0.890625 -0.609375q-0.34375 -0.40625 -0.515625 -0.953125q-0.171875 -0.546875 -0.171875 -1.1875zm3.921875 -0.5625q0.015625 -0.703125 -0.34375 -1.140625q-0.359375 -0.453125 -0.984375 -0.453125q-0.34375 0 -0.625 0.140625q-0.265625 0.140625 -0.453125 0.359375q-0.1875 0.21875 -0.296875 0.515625q-0.09375 0.28125 -0.125 0.578125l2.828125 0zm7.035034 3.40625q-0.3125 -0.796875 -0.671875 -1.8125q-0.34375 -1.015625 -0.625 -2.109375q-0.28125 1.09375 -0.625 2.109375q-0.34375 1.015625 -0.65625 1.8125l-0.890625 0q-0.5 -1.140625 -0.984375 -2.578125q-0.484375 -1.453125 -0.90625 -3.140625l1.09375 0q0.109375 0.515625 0.265625 1.125q0.15625 0.59375 0.328125 1.203125q0.171875 0.609375 0.359375 1.171875q0.1875 0.5625 0.34375 0.96875q0.1875 -0.515625 0.359375 -1.09375q0.1875 -0.578125 0.34375 -1.15625q0.171875 -0.59375 0.3125 -1.15625q0.15625 -0.5625 0.28125 -1.0625l0.84375 0q0.09375 0.5 0.234375 1.0625q0.140625 0.5625 0.296875 1.15625q0.171875 0.578125 0.359375 1.15625q0.1875 0.578125 0.375 1.09375q0.15625 -0.40625 0.328125 -0.96875q0.1875 -0.5625 0.359375 -1.171875q0.1875 -0.609375 0.34375 -1.203125q0.15625 -0.609375 0.265625 -1.125l1.046875 0q-0.421875 1.6875 -0.90625 3.140625q-0.484375 1.4375 -0.984375 2.578125l-0.890625 0zm5.5299683 -0.734375q0.359375 0 0.640625 -0.015625q0.28125 -0.015625 0.46875 -0.0625l0 -1.703125q-0.109375 -0.0625 -0.359375 -0.09375q-0.234375 -0.046875 -0.59375 -0.046875q-0.234375 0 -0.5 0.046875q-0.25 0.03125 -0.46875 0.140625q-0.203125 0.09375 -0.359375 0.28125q-0.140625 0.171875 -0.140625 0.46875q0 0.546875 0.359375 0.765625q0.359375 0.21875 0.953125 0.21875zm-0.078125 -5.125q0.609375 0 1.03125 0.15625q0.421875 0.15625 0.671875 0.453125q0.265625 0.28125 0.375 0.6875q0.109375 0.40625 0.109375 0.890625l0 3.578125q-0.125 0.015625 -0.359375 0.0625q-0.234375 0.03125 -0.53125 0.0625q-0.296875 0.03125 -0.65625 0.0625q-0.34375 0.03125 -0.6875 0.03125q-0.46875 0 -0.890625 -0.109375q-0.40625 -0.09375 -0.703125 -0.296875q-0.296875 -0.21875 -0.46875 -0.5625q-0.15625 -0.359375 -0.15625 -0.859375q0 -0.46875 0.1875 -0.8125q0.203125 -0.34375 0.53125 -0.546875q0.328125 -0.21875 0.765625 -0.3125q0.4375 -0.09375 0.921875 -0.09375q0.15625 0 0.3125 0.015625q0.171875 0.015625 0.3125 0.046875q0.15625 0.015625 0.265625 0.046875q0.125 0.015625 0.15625 0.03125l0 -0.296875q0 -0.25 -0.0625 -0.484375q-0.046875 -0.25 -0.1875 -0.4375q-0.140625 -0.203125 -0.390625 -0.3125q-0.25 -0.125 -0.640625 -0.125q-0.5 0 -0.890625 0.078125q-0.375 0.0625 -0.5625 0.140625l-0.125 -0.84375q0.203125 -0.09375 0.65625 -0.171875q0.46875 -0.078125 1.015625 -0.078125zm3.031372 6.921875q0.125 0.0625 0.3125 0.109375q0.203125 0.046875 0.390625 0.046875q0.59375 0 0.9375 -0.265625q0.34375 -0.265625 0.625 -0.875q-0.703125 -1.328125 -1.296875 -2.796875q-0.59375 -1.484375 -1.0 -3.0l1.109375 0q0.109375 0.5 0.28125 1.078125q0.171875 0.5625 0.375 1.171875q0.21875 0.59375 0.453125 1.203125q0.25 0.609375 0.515625 1.171875q0.421875 -1.15625 0.71875 -2.28125q0.3125 -1.140625 0.59375 -2.34375l1.046875 0q-0.390625 1.609375 -0.875 3.109375q-0.484375 1.484375 -1.046875 2.78125q-0.21875 0.5 -0.453125 0.859375q-0.234375 0.359375 -0.53125 0.578125q-0.28125 0.234375 -0.640625 0.34375q-0.359375 0.109375 -0.8125 0.109375q-0.109375 0 -0.25 -0.015625q-0.125 -0.015625 -0.25 -0.046875q-0.125 -0.015625 -0.234375 -0.0625q-0.109375 -0.03125 -0.15625 -0.046875l0.1875 -0.828125z" fill-rule="nonzero"></path><path fill="#000000" fill-opacity="0.0" d="m584.7313 327.95987l50.26776 0.25198364" fill-rule="nonzero"></path><path stroke="#666666" stroke-width="1.0" stroke-linejoin="round" stroke-linecap="butt" d="m584.7313 327.95987l44.267822 0.22189331" fill-rule="evenodd"></path><path fill="#666666" stroke="#666666" stroke-width="1.0" stroke-linecap="butt" d="m628.99084 329.83347l4.5463257 -1.6289673l-4.529785 -1.6744385z" fill-rule="evenodd"></path><path fill="#000000" fill-opacity="0.0" d="m630.4076 306.81592l100.81885 0l0 45.795258l-100.81885 0z" fill-rule="nonzero"></path><path fill="#666666" d="m645.43884 318.4309l0 0.921875l-2.390625 0l0 6.703125l-1.0625 0l0 -6.703125l-2.40625 0l0 -0.921875l5.859375 0zm5.911438 4.765625q0 0.6875 -0.203125 1.234375q-0.1875 0.546875 -0.546875 0.953125q-0.359375 0.390625 -0.859375 0.609375q-0.484375 0.203125 -1.0625 0.203125q-0.59375 0 -1.09375 -0.203125q-0.484375 -0.21875 -0.84375 -0.609375q-0.359375 -0.40625 -0.5625 -0.953125q-0.1875 -0.546875 -0.1875 -1.234375q0 -0.671875 0.1875 -1.21875q0.203125 -0.5625 0.5625 -0.953125q0.359375 -0.40625 0.84375 -0.609375q0.5 -0.21875 1.09375 -0.21875q0.578125 0 1.0625 0.21875q0.5 0.203125 0.859375 0.609375q0.359375 0.390625 0.546875 0.953125q0.203125 0.546875 0.203125 1.21875zm-1.0625 0q0 -0.96875 -0.4375 -1.53125q-0.421875 -0.578125 -1.171875 -0.578125q-0.75 0 -1.1875 0.578125q-0.4375 0.5625 -0.4375 1.53125q0 0.96875 0.4375 1.53125q0.4375 0.5625 1.1875 0.5625q0.75 0 1.171875 -0.5625q0.4375 -0.5625 0.4375 -1.53125zm5.7332764 -2.859375l2.15625 0l0 0.859375l-2.15625 0l0 2.640625q0 0.421875 0.0625 0.703125q0.0625 0.28125 0.1875 0.453125q0.140625 0.15625 0.328125 0.21875q0.203125 0.0625 0.46875 0.0625q0.46875 0 0.75 -0.09375q0.28125 -0.109375 0.390625 -0.15625l0.1875 0.84375q-0.15625 0.078125 -0.546875 0.1875q-0.375 0.125 -0.859375 0.125q-0.59375 0 -0.96875 -0.140625q-0.375 -0.15625 -0.609375 -0.453125q-0.234375 -0.296875 -0.328125 -0.734375q-0.09375 -0.4375 -0.09375 -1.015625l0 -5.09375l1.03125 -0.171875l0 1.765625zm3.3150635 5.71875l0 -8.359375l1.03125 -0.171875l0 2.921875q0.28125 -0.109375 0.609375 -0.171875q0.328125 -0.0625 0.640625 -0.0625q0.6875 0 1.125 0.203125q0.453125 0.1875 0.71875 0.53125q0.28125 0.34375 0.390625 0.828125q0.109375 0.484375 0.109375 1.0625l0 3.21875l-1.015625 0l0 -2.984375q0 -0.53125 -0.078125 -0.90625q-0.078125 -0.375 -0.25 -0.609375q-0.15625 -0.234375 -0.4375 -0.328125q-0.265625 -0.109375 -0.671875 -0.109375q-0.171875 0 -0.34375 0.03125q-0.171875 0.015625 -0.328125 0.046875q-0.15625 0.015625 -0.296875 0.046875q-0.125 0.03125 -0.171875 0.0625l0 4.75l-1.03125 0zm5.772278 -2.84375q0 -0.765625 0.21875 -1.328125q0.21875 -0.5625 0.578125 -0.9375q0.375 -0.375 0.84375 -0.5625q0.46875 -0.1875 0.96875 -0.1875q1.15625 0 1.765625 0.71875q0.625 0.71875 0.625 2.1875q0 0.078125 0 0.1875q0 0.09375 -0.015625 0.1875l-3.921875 0q0.0625 0.890625 0.515625 1.359375q0.453125 0.453125 1.40625 0.453125q0.546875 0 0.90625 -0.09375q0.375 -0.09375 0.5625 -0.1875l0.140625 0.859375q-0.1875 0.09375 -0.65625 0.203125q-0.46875 0.109375 -1.0625 0.109375q-0.75 0 -1.296875 -0.21875q-0.53125 -0.21875 -0.890625 -0.609375q-0.34375 -0.40625 -0.515625 -0.953125q-0.171875 -0.546875 -0.171875 -1.1875zm3.921875 -0.5625q0.015625 -0.703125 -0.34375 -1.140625q-0.359375 -0.453125 -0.984375 -0.453125q-0.34375 0 -0.625 0.140625q-0.265625 0.140625 -0.453125 0.359375q-0.1875 0.21875 -0.296875 0.515625q-0.09375 0.28125 -0.125 0.578125l2.828125 0zm4.887329 -4.21875l1.0625 0l0 7.625l-1.0625 0l0 -7.625zm2.788391 2.0625q0.359375 -0.078125 0.9375 -0.171875q0.578125 -0.109375 1.34375 -0.109375q0.6875 0 1.125 0.203125q0.453125 0.1875 0.71875 0.53125q0.28125 0.34375 0.390625 0.828125q0.109375 0.484375 0.109375 1.0625l0 3.21875l-1.015625 0l0 -2.984375q0 -0.53125 -0.078125 -0.90625q-0.078125 -0.375 -0.25 -0.609375q-0.15625 -0.234375 -0.4375 -0.328125q-0.265625 -0.109375 -0.671875 -0.109375q-0.171875 0 -0.34375 0.015625q-0.171875 0 -0.328125 0.015625q-0.15625 0.015625 -0.296875 0.046875q-0.125 0.015625 -0.171875 0.03125l0 4.828125l-1.03125 0l0 -5.5625zm7.0855103 -0.15625l2.15625 0l0 0.859375l-2.15625 0l0 2.640625q0 0.421875 0.0625 0.703125q0.0625 0.28125 0.1875 0.453125q0.140625 0.15625 0.328125 0.21875q0.203125 0.0625 0.46875 0.0625q0.46875 0 0.75 -0.09375q0.28125 -0.109375 0.390625 -0.15625l0.1875 0.84375q-0.15625 0.078125 -0.546875 0.1875q-0.375 0.125 -0.859375 0.125q-0.59375 0 -0.96875 -0.140625q-0.375 -0.15625 -0.609375 -0.453125q-0.234375 -0.296875 -0.328125 -0.734375q-0.09375 -0.4375 -0.09375 -1.015625l0 -5.09375l1.03125 -0.171875l0 1.765625zm3.0026245 2.875q0 -0.765625 0.21875 -1.328125q0.21875 -0.5625 0.578125 -0.9375q0.375 -0.375 0.84375 -0.5625q0.46875 -0.1875 0.96875 -0.1875q1.15625 0 1.765625 0.71875q0.625 0.71875 0.625 2.1875q0 0.078125 0 0.1875q0 0.09375 -0.015625 0.1875l-3.921875 0q0.0625 0.890625 0.515625 1.359375q0.453125 0.453125 1.40625 0.453125q0.546875 0 0.90625 -0.09375q0.375 -0.09375 0.5625 -0.1875l0.140625 0.859375q-0.1875 0.09375 -0.65625 0.203125q-0.46875 0.109375 -1.0625 0.109375q-0.75 0 -1.296875 -0.21875q-0.53125 -0.21875 -0.890625 -0.609375q-0.34375 -0.40625 -0.515625 -0.953125q-0.171875 -0.546875 -0.171875 -1.1875zm3.921875 -0.5625q0.015625 -0.703125 -0.34375 -1.140625q-0.359375 -0.453125 -0.984375 -0.453125q-0.34375 0 -0.625 0.140625q-0.265625 0.140625 -0.453125 0.359375q-0.1875 0.21875 -0.296875 0.515625q-0.09375 0.28125 -0.125 0.578125l2.828125 0zm4.456909 -2.4375q0.140625 0 0.3125 0.015625q0.171875 0.015625 0.328125 0.046875q0.171875 0.03125 0.296875 0.0625q0.140625 0.015625 0.21875 0.046875l-0.1875 0.890625q-0.109375 -0.046875 -0.390625 -0.109375q-0.28125 -0.0625 -0.71875 -0.0625q-0.296875 0 -0.578125 0.0625q-0.28125 0.0625 -0.359375 0.078125l0 4.8125l-1.03125 0l0 -5.484375q0.375 -0.125 0.90625 -0.234375q0.546875 -0.125 1.203125 -0.125zm2.0039673 0.28125q0.359375 -0.078125 0.9375 -0.171875q0.578125 -0.109375 1.34375 -0.109375q0.6875 0 1.125 0.203125q0.453125 0.1875 0.71875 0.53125q0.28125 0.34375 0.390625 0.828125q0.109375 0.484375 0.109375 1.0625l0 3.21875l-1.015625 0l0 -2.984375q0 -0.53125 -0.078125 -0.90625q-0.078125 -0.375 -0.25 -0.609375q-0.15625 -0.234375 -0.4375 -0.328125q-0.265625 -0.109375 -0.671875 -0.109375q-0.171875 0 -0.34375 0.015625q-0.171875 0 -0.328125 0.015625q-0.15625 0.015625 -0.296875 0.046875q-0.125 0.015625 -0.171875 0.03125l0 4.828125l-1.03125 0l0 -5.5625zm5.8042603 2.71875q0 -0.765625 0.21875 -1.328125q0.21875 -0.5625 0.578125 -0.9375q0.375 -0.375 0.84375 -0.5625q0.46875 -0.1875 0.96875 -0.1875q1.15625 0 1.765625 0.71875q0.625 0.71875 0.625 2.1875q0 0.078125 0 0.1875q0 0.09375 -0.015625 0.1875l-3.921875 0q0.0625 0.890625 0.515625 1.359375q0.453125 0.453125 1.40625 0.453125q0.546875 0 0.90625 -0.09375q0.375 -0.09375 0.5625 -0.1875l0.140625 0.859375q-0.1875 0.09375 -0.65625 0.203125q-0.46875 0.109375 -1.0625 0.109375q-0.75 0 -1.296875 -0.21875q-0.53125 -0.21875 -0.890625 -0.609375q-0.34375 -0.40625 -0.515625 -0.953125q-0.171875 -0.546875 -0.171875 -1.1875zm3.921875 -0.5625q0.015625 -0.703125 -0.34375 -1.140625q-0.359375 -0.453125 -0.984375 -0.453125q-0.34375 0 -0.625 0.140625q-0.265625 0.140625 -0.453125 0.359375q-0.1875 0.21875 -0.296875 0.515625q-0.09375 0.28125 -0.125 0.578125l2.828125 0zm3.3162842 -2.3125l2.15625 0l0 0.859375l-2.15625 0l0 2.640625q0 0.421875 0.0625 0.703125q0.0625 0.28125 0.1875 0.453125q0.140625 0.15625 0.328125 0.21875q0.203125 0.0625 0.46875 0.0625q0.46875 0 0.75 -0.09375q0.28125 -0.109375 0.390625 -0.15625l0.1875 0.84375q-0.15625 0.078125 -0.546875 0.1875q-0.375 0.125 -0.859375 0.125q-0.59375 0 -0.96875 -0.140625q-0.375 -0.15625 -0.609375 -0.453125q-0.234375 -0.296875 -0.328125 -0.734375q-0.09375 -0.4375 -0.09375 -1.015625l0 -5.09375l1.03125 -0.171875l0 1.765625z" fill-rule="nonzero"></path><path fill="#666666" d="m642.2201 338.32153q0.359375 0 0.640625 -0.015625q0.28125 -0.015625 0.46875 -0.0625l0 -1.703125q-0.109375 -0.0625 -0.359375 -0.09375q-0.234375 -0.046875 -0.59375 -0.046875q-0.234375 0 -0.5 0.046875q-0.25 0.03125 -0.46875 0.140625q-0.203125 0.09375 -0.359375 0.28125q-0.140625 0.171875 -0.140625 0.46875q0 0.546875 0.359375 0.765625q0.359375 0.21875 0.953125 0.21875zm-0.078125 -5.125q0.609375 0 1.03125 0.15625q0.421875 0.15625 0.671875 0.453125q0.265625 0.28125 0.375 0.6875q0.109375 0.40625 0.109375 0.890625l0 3.578125q-0.125 0.015625 -0.359375 0.0625q-0.234375 0.03125 -0.53125 0.0625q-0.296875 0.03125 -0.65625 0.0625q-0.34375 0.03125 -0.6875 0.03125q-0.46875 0 -0.890625 -0.109375q-0.40625 -0.09375 -0.703125 -0.296875q-0.296875 -0.21875 -0.46875 -0.5625q-0.15625 -0.359375 -0.15625 -0.859375q0 -0.46875 0.1875 -0.8125q0.203125 -0.34375 0.53125 -0.546875q0.328125 -0.21875 0.765625 -0.3125q0.4375 -0.09375 0.921875 -0.09375q0.15625 0 0.3125 0.015625q0.171875 0.015625 0.3125 0.046875q0.15625 0.015625 0.265625 0.046875q0.125 0.015625 0.15625 0.03125l0 -0.296875q0 -0.25 -0.0625 -0.484375q-0.046875 -0.25 -0.1875 -0.4375q-0.140625 -0.203125 -0.390625 -0.3125q-0.25 -0.125 -0.640625 -0.125q-0.5 0 -0.890625 0.078125q-0.375 0.0625 -0.5625 0.140625l-0.125 -0.84375q0.203125 -0.09375 0.65625 -0.171875q0.46875 -0.078125 1.015625 -0.078125zm3.703247 0.296875q0.359375 -0.078125 0.9375 -0.171875q0.578125 -0.109375 1.34375 -0.109375q0.6875 0 1.125 0.203125q0.453125 0.1875 0.71875 0.53125q0.28125 0.34375 0.390625 0.828125q0.109375 0.484375 0.109375 1.0625l0 3.21875l-1.015625 0l0 -2.984375q0 -0.53125 -0.078125 -0.90625q-0.078125 -0.375 -0.25 -0.609375q-0.15625 -0.234375 -0.4375 -0.328125q-0.265625 -0.109375 -0.671875 -0.109375q-0.171875 0 -0.34375 0.015625q-0.171875 0 -0.328125 0.015625q-0.15625 0.015625 -0.296875 0.046875q-0.125 0.015625 -0.171875 0.03125l0 4.828125l-1.03125 0l0 -5.5625zm9.819824 1.046875q-0.1875 -0.140625 -0.546875 -0.28125q-0.34375 -0.15625 -0.765625 -0.15625q-0.4375 0 -0.75 0.171875q-0.3125 0.15625 -0.515625 0.4375q-0.203125 0.28125 -0.296875 0.671875q-0.078125 0.375 -0.078125 0.8125q0 1.0 0.5 1.546875q0.5 0.546875 1.3125 0.546875q0.421875 0 0.703125 -0.03125q0.28125 -0.046875 0.4375 -0.09375l0 -3.625zm0 -3.84375l1.015625 -0.171875l0 8.359375q-0.34375 0.109375 -0.90625 0.203125q-0.546875 0.09375 -1.25 0.09375q-0.671875 0 -1.203125 -0.203125q-0.515625 -0.203125 -0.890625 -0.59375q-0.375 -0.390625 -0.578125 -0.9375q-0.203125 -0.5625 -0.203125 -1.25q0 -0.65625 0.171875 -1.203125q0.171875 -0.5625 0.5 -0.953125q0.328125 -0.390625 0.796875 -0.609375q0.484375 -0.234375 1.109375 -0.234375q0.484375 0 0.859375 0.140625q0.390625 0.125 0.578125 0.25l0 -2.890625zm7.160095 8.421875q-0.234375 0 -0.5 -0.015625q-0.265625 0 -0.546875 -0.03125q-0.265625 -0.015625 -0.53125 -0.046875q-0.25 -0.03125 -0.46875 -0.09375l0 -7.390625q0.21875 -0.046875 0.46875 -0.078125q0.265625 -0.046875 0.53125 -0.0625q0.28125 -0.015625 0.546875 -0.03125q0.265625 -0.015625 0.484375 -0.015625q0.671875 0 1.25 0.109375q0.578125 0.09375 1.0 0.328125q0.421875 0.234375 0.65625 0.625q0.25 0.375 0.25 0.9375q0 0.625 -0.296875 1.03125q-0.296875 0.40625 -0.796875 0.609375q0.671875 0.1875 1.0625 0.625q0.40625 0.421875 0.40625 1.203125q0 1.140625 -0.84375 1.71875q-0.84375 0.578125 -2.671875 0.578125zm-1.0 -3.609375l0 2.671875q0.125 0.015625 0.28125 0.03125q0.15625 0 0.34375 0.015625q0.1875 0 0.4375 0q0.484375 0 0.90625 -0.0625q0.421875 -0.0625 0.734375 -0.203125q0.328125 -0.15625 0.515625 -0.421875q0.1875 -0.28125 0.1875 -0.703125q0 -0.375 -0.140625 -0.625q-0.140625 -0.265625 -0.40625 -0.421875q-0.265625 -0.15625 -0.640625 -0.21875q-0.375 -0.0625 -0.84375 -0.0625l-1.375 0zm0 -0.859375l1.125 0q0.390625 0 0.734375 -0.046875q0.359375 -0.0625 0.609375 -0.203125q0.265625 -0.15625 0.40625 -0.375q0.15625 -0.234375 0.15625 -0.59375q0 -0.328125 -0.15625 -0.546875q-0.140625 -0.234375 -0.421875 -0.359375q-0.265625 -0.140625 -0.625 -0.203125q-0.359375 -0.078125 -0.765625 -0.078125q-0.40625 0 -0.640625 0.015625q-0.234375 0.015625 -0.421875 0.03125l0 2.359375zm5.414551 1.5625q0 -0.765625 0.21875 -1.328125q0.21875 -0.5625 0.578125 -0.9375q0.375 -0.375 0.84375 -0.5625q0.46875 -0.1875 0.96875 -0.1875q1.15625 0 1.765625 0.71875q0.625 0.71875 0.625 2.1875q0 0.078125 0 0.1875q0 0.09375 -0.015625 0.1875l-3.921875 0q0.0625 0.890625 0.515625 1.359375q0.453125 0.453125 1.40625 0.453125q0.546875 0 0.90625 -0.09375q0.375 -0.09375 0.5625 -0.1875l0.140625 0.859375q-0.1875 0.09375 -0.65625 0.203125q-0.46875 0.109375 -1.0625 0.109375q-0.75 0 -1.296875 -0.21875q-0.53125 -0.21875 -0.890625 -0.609375q-0.34375 -0.40625 -0.515625 -0.953125q-0.171875 -0.546875 -0.171875 -1.1875zm3.921875 -0.5625q0.015625 -0.703125 -0.34375 -1.140625q-0.359375 -0.453125 -0.984375 -0.453125q-0.34375 0 -0.625 0.140625q-0.265625 0.140625 -0.453125 0.359375q-0.1875 0.21875 -0.296875 0.515625q-0.09375 0.28125 -0.125 0.578125l2.828125 0zm1.6756592 4.46875q0.125 0.0625 0.3125 0.109375q0.203125 0.046875 0.390625 0.046875q0.59375 0 0.9375 -0.265625q0.34375 -0.265625 0.625 -0.875q-0.703125 -1.328125 -1.296875 -2.796875q-0.59375 -1.484375 -1.0 -3.0l1.109375 0q0.109375 0.5 0.28125 1.078125q0.171875 0.5625 0.375 1.171875q0.21875 0.59375 0.453125 1.203125q0.25 0.609375 0.515625 1.171875q0.421875 -1.15625 0.71875 -2.28125q0.3125 -1.140625 0.59375 -2.34375l1.046875 0q-0.390625 1.609375 -0.875 3.109375q-0.484375 1.484375 -1.046875 2.78125q-0.21875 0.5 -0.453125 0.859375q-0.234375 0.359375 -0.53125 0.578125q-0.28125 0.234375 -0.640625 0.34375q-0.359375 0.109375 -0.8125 0.109375q-0.109375 0 -0.25 -0.015625q-0.125 -0.015625 -0.25 -0.046875q-0.125 -0.015625 -0.234375 -0.0625q-0.109375 -0.03125 -0.15625 -0.046875l0.1875 -0.828125zm11.014954 -3.921875q0 0.6875 -0.203125 1.234375q-0.1875 0.546875 -0.546875 0.953125q-0.359375 0.390625 -0.859375 0.609375q-0.484375 0.203125 -1.0625 0.203125q-0.59375 0 -1.09375 -0.203125q-0.484375 -0.21875 -0.84375 -0.609375q-0.359375 -0.40625 -0.5625 -0.953125q-0.1875 -0.546875 -0.1875 -1.234375q0 -0.671875 0.1875 -1.21875q0.203125 -0.5625 0.5625 -0.953125q0.359375 -0.40625 0.84375 -0.609375q0.5 -0.21875 1.09375 -0.21875q0.578125 0 1.0625 0.21875q0.5 0.203125 0.859375 0.609375q0.359375 0.390625 0.546875 0.953125q0.203125 0.546875 0.203125 1.21875zm-1.0625 0q0 -0.96875 -0.4375 -1.53125q-0.421875 -0.578125 -1.171875 -0.578125q-0.75 0 -1.1875 0.578125q-0.4375 0.5625 -0.4375 1.53125q0 0.96875 0.4375 1.53125q0.4375 0.5625 1.1875 0.5625q0.75 0 1.171875 -0.5625q0.4375 -0.5625 0.4375 -1.53125zm2.3028564 -2.703125q0.359375 -0.078125 0.9375 -0.171875q0.578125 -0.109375 1.34375 -0.109375q0.6875 0 1.125 0.203125q0.453125 0.1875 0.71875 0.53125q0.28125 0.34375 0.390625 0.828125q0.109375 0.484375 0.109375 1.0625l0 3.21875l-1.015625 0l0 -2.984375q0 -0.53125 -0.078125 -0.90625q-0.078125 -0.375 -0.25 -0.609375q-0.15625 -0.234375 -0.4375 -0.328125q-0.265625 -0.109375 -0.671875 -0.109375q-0.171875 0 -0.34375 0.015625q-0.171875 0 -0.328125 0.015625q-0.15625 0.015625 -0.296875 0.046875q-0.125 0.015625 -0.171875 0.03125l0 4.828125l-1.03125 0l0 -5.5625zm9.819885 1.046875q-0.1875 -0.140625 -0.546875 -0.28125q-0.34375 -0.15625 -0.765625 -0.15625q-0.4375 0 -0.75 0.171875q-0.3125 0.15625 -0.515625 0.4375q-0.203125 0.28125 -0.296875 0.671875q-0.078125 0.375 -0.078125 0.8125q0 1.0 0.5 1.546875q0.5 0.546875 1.3125 0.546875q0.421875 0 0.703125 -0.03125q0.28125 -0.046875 0.4375 -0.09375l0 -3.625zm0 -3.84375l1.015625 -0.171875l0 8.359375q-0.34375 0.109375 -0.90625 0.203125q-0.546875 0.09375 -1.25 0.09375q-0.671875 0 -1.203125 -0.203125q-0.515625 -0.203125 -0.890625 -0.59375q-0.375 -0.390625 -0.578125 -0.9375q-0.203125 -0.5625 -0.203125 -1.25q0 -0.65625 0.171875 -1.203125q0.171875 -0.5625 0.5 -0.953125q0.328125 -0.390625 0.796875 -0.609375q0.484375 -0.234375 1.109375 -0.234375q0.484375 0 0.859375 0.140625q0.390625 0.125 0.578125 0.25l0 -2.890625z" fill-rule="nonzero"></path></g></svg>

